<?xml version="1.0" encoding="utf-8" standalone="no"?>
<!DOCTYPE svg PUBLIC "-//W3C//DTD SVG 1.1//EN"
  "http://www.w3.org/Graphics/SVG/1.1/DTD/svg11.dtd">
<svg xmlns:xlink="http://www.w3.org/1999/xlink" width="648pt" height="345.6pt" viewBox="0 0 648 345.6" xmlns="http://www.w3.org/2000/svg" version="1.1">
 <metadata>
  <rdf:RDF xmlns:dc="http://purl.org/dc/elements/1.1/" xmlns:cc="http://creativecommons.org/ns#" xmlns:rdf="http://www.w3.org/1999/02/22-rdf-syntax-ns#">
   <cc:Work>
    <dc:type rdf:resource="http://purl.org/dc/dcmitype/StillImage"/>
    <dc:date>2026-10-03T20:18:02.703974</dc:date>
    <dc:format>image/svg+xml</dc:format>
    <dc:creator>
     <cc:Agent>
      <dc:title>Matplotlib v3.11.2, https://matplotlib.org/</dc:title>
     </cc:Agent>
    </dc:creator>
   </cc:Work>
  </rdf:RDF>
 </metadata>
 <defs>
  <style type="text/css">*{stroke-linejoin: round; stroke-linecap: butt}</style>
 </defs>
 <g id="figure_1">
  <g id="patch_1">
   <path d="M 0 345.6 
L 648 345.6 
L 648 0 
L 0 0 
z
" style="fill: #ffffff"/>
  </g>
  <g id="axes_1">
   <g id="patch_2">
    <path d="M 46.418139 311.59976 
L 306.293663 311.59976 
L 306.293663 51.724236 
L 46.418139 51.724236 
z
" style="fill: #ffffff"/>
   </g>
   <g id="patch_3">
    <path d="M 176.355901 196.817686 
C 180.375237 196.817686 184.230492 195.220787 187.072591 192.378687 
C 189.91469 189.536588 191.511589 185.681333 191.511589 181.661998 
C 191.511589 177.642662 189.91469 173.787407 187.072591 170.945308 
C 184.230492 168.103209 180.375237 166.50631 176.355901 166.50631 
C 172.336566 166.50631 168.481311 168.103209 165.639212 170.945308 
C 162.797112 173.787407 161.200213 177.642662 161.200213 181.661998 
C 161.200213 185.681333 162.797112 189.536588 165.639212 192.378687 
C 168.481311 195.220787 172.336566 196.817686 176.355901 196.817686 
z
" clip-path="url(#p23477f7217)" style="fill: #2b758e; opacity: 0.82; stroke: #16324f; stroke-width: 0.8; stroke-linejoin: miter"/>
   </g>
   <g id="patch_4">
    <path d="M 254.318559 195.990306 
C 258.11847 195.990306 261.763259 194.480585 264.450203 191.793642 
C 267.137146 189.106698 268.646867 185.46191 268.646867 181.661998 
C 268.646867 177.862086 267.137146 174.217297 264.450203 171.530354 
C 261.763259 168.84341 258.11847 167.333689 254.318559 167.333689 
C 250.518647 167.333689 246.873858 168.84341 244.186914 171.530354 
C 241.499971 174.217297 239.99025 177.862086 239.99025 181.661998 
C 239.99025 185.46191 241.499971 189.106698 244.186914 191.793642 
C 246.873858 194.480585 250.518647 195.990306 254.318559 195.990306 
z
" clip-path="url(#p23477f7217)" style="fill: #2d718e; opacity: 0.82; stroke: #16324f; stroke-width: 0.8; stroke-linejoin: miter"/>
   </g>
   <g id="patch_5">
    <path d="M 231.483825 142.764592 
C 235.788209 142.764592 239.916875 141.054442 242.960534 138.010783 
C 246.004193 134.967125 247.714343 130.838458 247.714343 126.534074 
C 247.714343 122.22969 246.004193 118.101024 242.960534 115.057365 
C 239.916875 112.013706 235.788209 110.303556 231.483825 110.303556 
C 227.179441 110.303556 223.050775 112.013706 220.007116 115.057365 
C 216.963457 118.101024 215.253307 122.22969 215.253307 126.534074 
C 215.253307 130.838458 216.963457 134.967125 220.007116 138.010783 
C 223.050775 141.054442 227.179441 142.764592 231.483825 142.764592 
z
" clip-path="url(#p23477f7217)" style="fill: #287c8e; opacity: 0.82; stroke: #16324f; stroke-width: 0.8; stroke-linejoin: miter"/>
   </g>
   <g id="patch_6">
    <path d="M 176.355901 125.743097 
C 182.201974 125.743097 187.809393 123.420428 191.943191 119.28663 
C 196.076988 115.152833 198.399657 109.545413 198.399657 103.699341 
C 198.399657 97.853268 196.076988 92.245848 191.943191 88.112051 
C 187.809393 83.978253 182.201974 81.655584 176.355901 81.655584 
C 170.509829 81.655584 164.902409 83.978253 160.768612 88.112051 
C 156.634814 92.245848 154.312145 97.853268 154.312145 103.699341 
C 154.312145 109.545413 156.634814 115.152833 160.768612 119.28663 
C 164.902409 123.420428 170.509829 125.743097 176.355901 125.743097 
z
" clip-path="url(#p23477f7217)" style="fill: #1fa088; opacity: 0.82; stroke: #16324f; stroke-width: 0.8; stroke-linejoin: miter"/>
   </g>
   <g id="patch_7">
    <path d="M 121.227978 151.591291 
C 127.873229 151.591291 134.247203 148.951105 138.946106 144.252202 
C 143.645008 139.5533 146.285195 133.179326 146.285195 126.534074 
C 146.285195 119.888822 143.645008 113.514848 138.946106 108.815946 
C 134.247203 104.117043 127.873229 101.476857 121.227978 101.476857 
C 114.582726 101.476857 108.208752 104.117043 103.509849 108.815946 
C 98.810947 113.514848 96.17076 119.888822 96.17076 126.534074 
C 96.17076 133.179326 98.810947 139.5533 103.509849 144.252202 
C 108.208752 148.951105 114.582726 151.591291 121.227978 151.591291 
z
" clip-path="url(#p23477f7217)" style="fill: #2db27d; opacity: 0.82; stroke: #16324f; stroke-width: 0.8; stroke-linejoin: miter"/>
   </g>
   <g id="patch_8">
    <path d="M 98.393244 203.512116 
C 104.187963 203.512116 109.746126 201.20985 113.843611 197.112365 
C 117.941096 193.014879 120.243362 187.456717 120.243362 181.661998 
C 120.243362 175.867279 117.941096 170.309116 113.843611 166.211631 
C 109.746126 162.114146 104.187963 159.81188 98.393244 159.81188 
C 92.598525 159.81188 87.040362 162.114146 82.942877 166.211631 
C 78.845392 170.309116 76.543126 175.867279 76.543126 181.661998 
C 76.543126 187.456717 78.845392 193.014879 82.942877 197.112365 
C 87.040362 201.20985 92.598525 203.512116 98.393244 203.512116 
z
" clip-path="url(#p23477f7217)" style="fill: #1f9f88; opacity: 0.82; stroke: #16324f; stroke-width: 0.8; stroke-linejoin: miter"/>
   </g>
   <g id="patch_9">
    <path d="M 121.227978 261.921779 
C 127.893024 261.921779 134.285985 259.273728 138.998885 254.560829 
C 143.711784 249.847929 146.359836 243.454968 146.359836 236.789921 
C 146.359836 230.124875 143.711784 223.731914 138.998885 219.019014 
C 134.285985 214.306115 127.893024 211.658064 121.227978 211.658064 
C 114.562931 211.658064 108.16997 214.306115 103.45707 219.019014 
C 98.744171 223.731914 96.09612 230.124875 96.09612 236.789921 
C 96.09612 243.454968 98.744171 249.847929 103.45707 254.560829 
C 108.16997 259.273728 114.562931 261.921779 121.227978 261.921779 
z
" clip-path="url(#p23477f7217)" style="fill: #2eb37c; opacity: 0.82; stroke: #16324f; stroke-width: 0.8; stroke-linejoin: miter"/>
   </g>
   <g id="patch_10">
    <path d="M 176.355901 285.424564 
C 183.198117 285.424564 189.761014 282.706123 194.599192 277.867946 
C 199.437369 273.029768 202.15581 266.466871 202.15581 259.624655 
C 202.15581 252.782439 199.437369 246.219542 194.599192 241.381365 
C 189.761014 236.543188 183.198117 233.824746 176.355901 233.824746 
C 169.513685 233.824746 162.950788 236.543188 158.112611 241.381365 
C 153.274434 246.219542 150.555993 252.782439 150.555993 259.624655 
C 150.555993 266.466871 153.274434 273.029768 158.112611 277.867946 
C 162.950788 282.706123 169.513685 285.424564 176.355901 285.424564 
z
" clip-path="url(#p23477f7217)" style="fill: #34b679; opacity: 0.82; stroke: #16324f; stroke-width: 0.8; stroke-linejoin: miter"/>
   </g>
   <g id="patch_11">
    <path d="M 231.483825 270.660047 
C 240.466287 270.660047 249.082061 267.091277 255.433621 260.739717 
C 261.785181 254.388157 265.353951 245.772384 265.353951 236.789921 
C 265.353951 227.807459 261.785181 219.191686 255.433621 212.840126 
C 249.082061 206.488566 240.466287 202.919796 231.483825 202.919796 
C 222.501363 202.919796 213.885589 206.488566 207.534029 212.840126 
C 201.182469 219.191686 197.613699 227.807459 197.613699 236.789921 
C 197.613699 245.772384 201.182469 254.388157 207.534029 260.739717 
C 213.885589 267.091277 222.501363 270.660047 231.483825 270.660047 
z
" clip-path="url(#p23477f7217)" style="fill: #a8db34; opacity: 0.82; stroke: #16324f; stroke-width: 0.8; stroke-linejoin: miter"/>
   </g>
   <g id="patch_12">
    <path d="M 303.694908 184.260753 
C 304.384106 184.260753 305.045169 183.986932 305.532506 183.499595 
C 306.019842 183.012259 306.293663 182.351196 306.293663 181.661998 
C 306.293663 180.9728 306.019842 180.311737 305.532506 179.8244 
C 305.045169 179.337064 304.384106 179.063243 303.694908 179.063243 
C 303.00571 179.063243 302.344647 179.337064 301.857311 179.8244 
C 301.369974 180.311737 301.096153 180.9728 301.096153 181.661998 
C 301.096153 182.351196 301.369974 183.012259 301.857311 183.499595 
C 302.344647 183.986932 303.00571 184.260753 303.694908 184.260753 
z
" clip-path="url(#p23477f7217)" style="fill: #481a6c; opacity: 0.82; stroke: #16324f; stroke-width: 0.8; stroke-linejoin: miter"/>
   </g>
   <g id="patch_13">
    <path d="M 303.694908 114.645713 
C 304.384106 114.645713 305.045169 114.371891 305.532506 113.884555 
C 306.019842 113.397218 306.293663 112.736155 306.293663 112.046957 
C 306.293663 111.35776 306.019842 110.696697 305.532506 110.20936 
C 305.045169 109.722023 304.384106 109.448202 303.694908 109.448202 
C 303.00571 109.448202 302.344647 109.722023 301.857311 110.20936 
C 301.369974 110.696697 301.096153 111.35776 301.096153 112.046957 
C 301.096153 112.736155 301.369974 113.397218 301.857311 113.884555 
C 302.344647 114.371891 303.00571 114.645713 303.694908 114.645713 
z
" clip-path="url(#p23477f7217)" style="fill: #481a6c; opacity: 0.82; stroke: #16324f; stroke-width: 0.8; stroke-linejoin: miter"/>
   </g>
   <g id="patch_14">
    <path d="M 303.694908 56.921746 
C 304.384106 56.921746 305.045169 56.647925 305.532506 56.160588 
C 306.019842 55.673252 306.293663 55.012189 306.293663 54.322991 
C 306.293663 53.633793 306.019842 52.97273 305.532506 52.485393 
C 305.045169 51.998057 304.384106 51.724236 303.694908 51.724236 
C 303.00571 51.724236 302.344647 51.998057 301.857311 52.485393 
C 301.369974 52.97273 301.096153 53.633793 301.096153 54.322991 
C 301.096153 55.012189 301.369974 55.673252 301.857311 56.160588 
C 302.344647 56.647925 303.00571 56.921746 303.694908 56.921746 
z
" clip-path="url(#p23477f7217)" style="fill: #481a6c; opacity: 0.82; stroke: #16324f; stroke-width: 0.8; stroke-linejoin: miter"/>
   </g>
   <g id="patch_15">
    <path d="M 245.970942 56.921746 
C 246.66014 56.921746 247.321203 56.647925 247.808539 56.160588 
C 248.295876 55.673252 248.569697 55.012189 248.569697 54.322991 
C 248.569697 53.633793 248.295876 52.97273 247.808539 52.485393 
C 247.321203 51.998057 246.66014 51.724236 245.970942 51.724236 
C 245.281744 51.724236 244.620681 51.998057 244.133344 52.485393 
C 243.646008 52.97273 243.372186 53.633793 243.372186 54.322991 
C 243.372186 55.012189 243.646008 55.673252 244.133344 56.160588 
C 244.620681 56.647925 245.281744 56.921746 245.970942 56.921746 
z
" clip-path="url(#p23477f7217)" style="fill: #481a6c; opacity: 0.82; stroke: #16324f; stroke-width: 0.8; stroke-linejoin: miter"/>
   </g>
   <g id="patch_16">
    <path d="M 176.355901 56.921746 
C 177.045099 56.921746 177.706162 56.647925 178.193499 56.160588 
C 178.680835 55.673252 178.954656 55.012189 178.954656 54.322991 
C 178.954656 53.633793 178.680835 52.97273 178.193499 52.485393 
C 177.706162 51.998057 177.045099 51.724236 176.355901 51.724236 
C 175.666703 51.724236 175.00564 51.998057 174.518304 52.485393 
C 174.030967 52.97273 173.757146 53.633793 173.757146 54.322991 
C 173.757146 55.012189 174.030967 55.673252 174.518304 56.160588 
C 175.00564 56.647925 175.666703 56.921746 176.355901 56.921746 
z
" clip-path="url(#p23477f7217)" style="fill: #481a6c; opacity: 0.82; stroke: #16324f; stroke-width: 0.8; stroke-linejoin: miter"/>
   </g>
   <g id="patch_17">
    <path d="M 106.740861 56.921746 
C 107.430059 56.921746 108.091122 56.647925 108.578458 56.160588 
C 109.065795 55.673252 109.339616 55.012189 109.339616 54.322991 
C 109.339616 53.633793 109.065795 52.97273 108.578458 52.485393 
C 108.091122 51.998057 107.430059 51.724236 106.740861 51.724236 
C 106.051663 51.724236 105.3906 51.998057 104.903263 52.485393 
C 104.415927 52.97273 104.142106 53.633793 104.142106 54.322991 
C 104.142106 55.012189 104.415927 55.673252 104.903263 56.160588 
C 105.3906 56.647925 106.051663 56.921746 106.740861 56.921746 
z
" clip-path="url(#p23477f7217)" style="fill: #481a6c; opacity: 0.82; stroke: #16324f; stroke-width: 0.8; stroke-linejoin: miter"/>
   </g>
   <g id="patch_18">
    <path d="M 49.016894 56.921746 
C 49.706092 56.921746 50.367155 56.647925 50.854492 56.160588 
C 51.341828 55.673252 51.61565 55.012189 51.61565 54.322991 
C 51.61565 53.633793 51.341828 52.97273 50.854492 52.485393 
C 50.367155 51.998057 49.706092 51.724236 49.016894 51.724236 
C 48.327696 51.724236 47.666633 51.998057 47.179297 52.485393 
C 46.69196 52.97273 46.418139 53.633793 46.418139 54.322991 
C 46.418139 55.012189 46.69196 55.673252 47.179297 56.160588 
C 47.666633 56.647925 48.327696 56.921746 49.016894 56.921746 
z
" clip-path="url(#p23477f7217)" style="fill: #481a6c; opacity: 0.82; stroke: #16324f; stroke-width: 0.8; stroke-linejoin: miter"/>
   </g>
   <g id="patch_19">
    <path d="M 49.016894 114.645713 
C 49.706092 114.645713 50.367155 114.371891 50.854492 113.884555 
C 51.341828 113.397218 51.61565 112.736155 51.61565 112.046957 
C 51.61565 111.35776 51.341828 110.696697 50.854492 110.20936 
C 50.367155 109.722023 49.706092 109.448202 49.016894 109.448202 
C 48.327696 109.448202 47.666633 109.722023 47.179297 110.20936 
C 46.69196 110.696697 46.418139 111.35776 46.418139 112.046957 
C 46.418139 112.736155 46.69196 113.397218 47.179297 113.884555 
C 47.666633 114.371891 48.327696 114.645713 49.016894 114.645713 
z
" clip-path="url(#p23477f7217)" style="fill: #481a6c; opacity: 0.82; stroke: #16324f; stroke-width: 0.8; stroke-linejoin: miter"/>
   </g>
   <g id="patch_20">
    <path d="M 49.016894 184.260753 
C 49.706092 184.260753 50.367155 183.986932 50.854492 183.499595 
C 51.341828 183.012259 51.61565 182.351196 51.61565 181.661998 
C 51.61565 180.9728 51.341828 180.311737 50.854492 179.8244 
C 50.367155 179.337064 49.706092 179.063243 49.016894 179.063243 
C 48.327696 179.063243 47.666633 179.337064 47.179297 179.8244 
C 46.69196 180.311737 46.418139 180.9728 46.418139 181.661998 
C 46.418139 182.351196 46.69196 183.012259 47.179297 183.499595 
C 47.666633 183.986932 48.327696 184.260753 49.016894 184.260753 
z
" clip-path="url(#p23477f7217)" style="fill: #481a6c; opacity: 0.82; stroke: #16324f; stroke-width: 0.8; stroke-linejoin: miter"/>
   </g>
   <g id="patch_21">
    <path d="M 49.016894 253.875793 
C 49.706092 253.875793 50.367155 253.601972 50.854492 253.114636 
C 51.341828 252.627299 51.61565 251.966236 51.61565 251.277038 
C 51.61565 250.58784 51.341828 249.926777 50.854492 249.439441 
C 50.367155 248.952104 49.706092 248.678283 49.016894 248.678283 
C 48.327696 248.678283 47.666633 248.952104 47.179297 249.439441 
C 46.69196 249.926777 46.418139 250.58784 46.418139 251.277038 
C 46.418139 251.966236 46.69196 252.627299 47.179297 253.114636 
C 47.666633 253.601972 48.327696 253.875793 49.016894 253.875793 
z
" clip-path="url(#p23477f7217)" style="fill: #481a6c; opacity: 0.82; stroke: #16324f; stroke-width: 0.8; stroke-linejoin: miter"/>
   </g>
   <g id="patch_22">
    <path d="M 49.016894 311.59976 
C 49.706092 311.59976 50.367155 311.325939 50.854492 310.838602 
C 51.341828 310.351266 51.61565 309.690203 51.61565 309.001005 
C 51.61565 308.311807 51.341828 307.650744 50.854492 307.163407 
C 50.367155 306.676071 49.706092 306.40225 49.016894 306.40225 
C 48.327696 306.40225 47.666633 306.676071 47.179297 307.163407 
C 46.69196 307.650744 46.418139 308.311807 46.418139 309.001005 
C 46.418139 309.690203 46.69196 310.351266 47.179297 310.838602 
C 47.666633 311.325939 48.327696 311.59976 49.016894 311.59976 
z
" clip-path="url(#p23477f7217)" style="fill: #481a6c; opacity: 0.82; stroke: #16324f; stroke-width: 0.8; stroke-linejoin: miter"/>
   </g>
   <g id="patch_23">
    <path d="M 106.740861 311.59976 
C 107.430059 311.59976 108.091122 311.325939 108.578458 310.838602 
C 109.065795 310.351266 109.339616 309.690203 109.339616 309.001005 
C 109.339616 308.311807 109.065795 307.650744 108.578458 307.163407 
C 108.091122 306.676071 107.430059 306.40225 106.740861 306.40225 
C 106.051663 306.40225 105.3906 306.676071 104.903263 307.163407 
C 104.415927 307.650744 104.142106 308.311807 104.142106 309.001005 
C 104.142106 309.690203 104.415927 310.351266 104.903263 310.838602 
C 105.3906 311.325939 106.051663 311.59976 106.740861 311.59976 
z
" clip-path="url(#p23477f7217)" style="fill: #481a6c; opacity: 0.82; stroke: #16324f; stroke-width: 0.8; stroke-linejoin: miter"/>
   </g>
   <g id="patch_24">
    <path d="M 176.355901 311.59976 
C 177.045099 311.59976 177.706162 311.325939 178.193499 310.838602 
C 178.680835 310.351266 178.954656 309.690203 178.954656 309.001005 
C 178.954656 308.311807 178.680835 307.650744 178.193499 307.163407 
C 177.706162 306.676071 177.045099 306.40225 176.355901 306.40225 
C 175.666703 306.40225 175.00564 306.676071 174.518304 307.163407 
C 174.030967 307.650744 173.757146 308.311807 173.757146 309.001005 
C 173.757146 309.690203 174.030967 310.351266 174.518304 310.838602 
C 175.00564 311.325939 175.666703 311.59976 176.355901 311.59976 
z
" clip-path="url(#p23477f7217)" style="fill: #481a6c; opacity: 0.82; stroke: #16324f; stroke-width: 0.8; stroke-linejoin: miter"/>
   </g>
   <g id="patch_25">
    <path d="M 245.970942 311.59976 
C 246.66014 311.59976 247.321203 311.325939 247.808539 310.838602 
C 248.295876 310.351266 248.569697 309.690203 248.569697 309.001005 
C 248.569697 308.311807 248.295876 307.650744 247.808539 307.163407 
C 247.321203 306.676071 246.66014 306.40225 245.970942 306.40225 
C 245.281744 306.40225 244.620681 306.676071 244.133344 307.163407 
C 243.646008 307.650744 243.372186 308.311807 243.372186 309.001005 
C 243.372186 309.690203 243.646008 310.351266 244.133344 310.838602 
C 244.620681 311.325939 245.281744 311.59976 245.970942 311.59976 
z
" clip-path="url(#p23477f7217)" style="fill: #481a6c; opacity: 0.82; stroke: #16324f; stroke-width: 0.8; stroke-linejoin: miter"/>
   </g>
   <g id="patch_26">
    <path d="M 303.694908 311.59976 
C 304.384106 311.59976 305.045169 311.325939 305.532506 310.838602 
C 306.019842 310.351266 306.293663 309.690203 306.293663 309.001005 
C 306.293663 308.311807 306.019842 307.650744 305.532506 307.163407 
C 305.045169 306.676071 304.384106 306.40225 303.694908 306.40225 
C 303.00571 306.40225 302.344647 306.676071 301.857311 307.163407 
C 301.369974 307.650744 301.096153 308.311807 301.096153 309.001005 
C 301.096153 309.690203 301.369974 310.351266 301.857311 310.838602 
C 302.344647 311.325939 303.00571 311.59976 303.694908 311.59976 
z
" clip-path="url(#p23477f7217)" style="fill: #481a6c; opacity: 0.82; stroke: #16324f; stroke-width: 0.8; stroke-linejoin: miter"/>
   </g>
   <g id="patch_27">
    <path d="M 303.694908 253.875793 
C 304.384106 253.875793 305.045169 253.601972 305.532506 253.114636 
C 306.019842 252.627299 306.293663 251.966236 306.293663 251.277038 
C 306.293663 250.58784 306.019842 249.926777 305.532506 249.439441 
C 305.045169 248.952104 304.384106 248.678283 303.694908 248.678283 
C 303.00571 248.678283 302.344647 248.952104 301.857311 249.439441 
C 301.369974 249.926777 301.096153 250.58784 301.096153 251.277038 
C 301.096153 251.966236 301.369974 252.627299 301.857311 253.114636 
C 302.344647 253.601972 303.00571 253.875793 303.694908 253.875793 
z
" clip-path="url(#p23477f7217)" style="fill: #481a6c; opacity: 0.82; stroke: #16324f; stroke-width: 0.8; stroke-linejoin: miter"/>
   </g>
   <g id="patch_28">
    <path d="M 225.703789 110.742379 
C 231.552933 110.742379 237.163298 108.418489 241.299267 104.28252 
C 245.435237 100.146551 247.759126 94.536185 247.759126 88.687041 
C 247.759126 82.837897 245.435237 77.227531 241.299267 73.091562 
C 237.163298 68.955593 231.552933 66.631703 225.703789 66.631703 
C 219.854645 66.631703 214.244279 68.955593 210.10831 73.091562 
C 205.97234 77.227531 203.648451 82.837897 203.648451 88.687041 
C 203.648451 94.536185 205.97234 100.146551 210.10831 104.28252 
C 214.244279 108.418489 219.854645 110.742379 225.703789 110.742379 
z
" clip-path="url(#p23477f7217)" style="fill: #1fa088; opacity: 0.82; stroke: #16324f; stroke-width: 0.8; stroke-linejoin: miter"/>
   </g>
   <g id="matplotlib.axis_1">
    <g id="xtick_1">
     <g id="line2d_1">
      <path d="M 46.418139 311.59976 
L 46.418139 51.724236 
" clip-path="url(#p23477f7217)" style="fill: none; stroke: #b0b0b0; stroke-opacity: 0.12; stroke-width: 0.8; stroke-linecap: square"/>
     </g>
     <g id="line2d_2">
      <defs>
       <path id="m865562ee36" d="M 0 0 
L 0 3.5 
" style="stroke: #000000; stroke-width: 0.8"/>
      </defs>
      <g>
       <use xlink:href="#m865562ee36" x="46.418139" y="311.59976" style="stroke: #000000; stroke-width: 0.8"/>
      </g>
     </g>
     <g id="text_1">
      <!-- 0.0 -->
      <g transform="translate(38.466577 326.197416) scale(0.1 -0.1)">
       <defs>
        <path id="DejaVuSans-13" d="M 2034 4250 
Q 1547 4250 1301 3770 
Q 1056 3291 1056 2328 
Q 1056 1369 1301 889 
Q 1547 409 2034 409 
Q 2525 409 2770 889 
Q 3016 1369 3016 2328 
Q 3016 3291 2770 3770 
Q 2525 4250 2034 4250 
z
M 2034 4750 
Q 2819 4750 3233 4129 
Q 3647 3509 3647 2328 
Q 3647 1150 3233 529 
Q 2819 -91 2034 -91 
Q 1250 -91 836 529 
Q 422 1150 422 2328 
Q 422 3509 836 4129 
Q 1250 4750 2034 4750 
z
" transform="scale(0.015625)"/>
        <path id="DejaVuSans-11" d="M 684 794 
L 1344 794 
L 1344 0 
L 684 0 
L 684 794 
z
" transform="scale(0.015625)"/>
       </defs>
       <use xlink:href="#DejaVuSans-13"/>
       <use xlink:href="#DejaVuSans-11" transform="translate(63.625 0)"/>
       <use xlink:href="#DejaVuSans-13" transform="translate(95.40625 0)"/>
      </g>
     </g>
    </g>
    <g id="xtick_2">
     <g id="line2d_3">
      <path d="M 98.393244 311.59976 
L 98.393244 51.724236 
" clip-path="url(#p23477f7217)" style="fill: none; stroke: #b0b0b0; stroke-opacity: 0.12; stroke-width: 0.8; stroke-linecap: square"/>
     </g>
     <g id="line2d_4">
      <g>
       <use xlink:href="#m865562ee36" x="98.393244" y="311.59976" style="stroke: #000000; stroke-width: 0.8"/>
      </g>
     </g>
     <g id="text_2">
      <!-- 0.2 -->
      <g transform="translate(90.441681 326.197416) scale(0.1 -0.1)">
       <defs>
        <path id="DejaVuSans-15" d="M 1228 531 
L 3431 531 
L 3431 0 
L 469 0 
L 469 531 
Q 828 903 1448 1529 
Q 2069 2156 2228 2338 
Q 2531 2678 2651 2914 
Q 2772 3150 2772 3378 
Q 2772 3750 2511 3984 
Q 2250 4219 1831 4219 
Q 1534 4219 1204 4116 
Q 875 4013 500 3803 
L 500 4441 
Q 881 4594 1212 4672 
Q 1544 4750 1819 4750 
Q 2544 4750 2975 4387 
Q 3406 4025 3406 3419 
Q 3406 3131 3298 2873 
Q 3191 2616 2906 2266 
Q 2828 2175 2409 1742 
Q 1991 1309 1228 531 
z
" transform="scale(0.015625)"/>
       </defs>
       <use xlink:href="#DejaVuSans-13"/>
       <use xlink:href="#DejaVuSans-11" transform="translate(63.625 0)"/>
       <use xlink:href="#DejaVuSans-15" transform="translate(95.40625 0)"/>
      </g>
     </g>
    </g>
    <g id="xtick_3">
     <g id="line2d_5">
      <path d="M 150.368349 311.59976 
L 150.368349 51.724236 
" clip-path="url(#p23477f7217)" style="fill: none; stroke: #b0b0b0; stroke-opacity: 0.12; stroke-width: 0.8; stroke-linecap: square"/>
     </g>
     <g id="line2d_6">
      <g>
       <use xlink:href="#m865562ee36" x="150.368349" y="311.59976" style="stroke: #000000; stroke-width: 0.8"/>
      </g>
     </g>
     <g id="text_3">
      <!-- 0.4 -->
      <g transform="translate(142.416786 326.197416) scale(0.1 -0.1)">
       <defs>
        <path id="DejaVuSans-17" d="M 2419 4116 
L 825 1625 
L 2419 1625 
L 2419 4116 
z
M 2253 4666 
L 3047 4666 
L 3047 1625 
L 3713 1625 
L 3713 1100 
L 3047 1100 
L 3047 0 
L 2419 0 
L 2419 1100 
L 313 1100 
L 313 1709 
L 2253 4666 
z
" transform="scale(0.015625)"/>
       </defs>
       <use xlink:href="#DejaVuSans-13"/>
       <use xlink:href="#DejaVuSans-11" transform="translate(63.625 0)"/>
       <use xlink:href="#DejaVuSans-17" transform="translate(95.40625 0)"/>
      </g>
     </g>
    </g>
    <g id="xtick_4">
     <g id="line2d_7">
      <path d="M 202.343454 311.59976 
L 202.343454 51.724236 
" clip-path="url(#p23477f7217)" style="fill: none; stroke: #b0b0b0; stroke-opacity: 0.12; stroke-width: 0.8; stroke-linecap: square"/>
     </g>
     <g id="line2d_8">
      <g>
       <use xlink:href="#m865562ee36" x="202.343454" y="311.59976" style="stroke: #000000; stroke-width: 0.8"/>
      </g>
     </g>
     <g id="text_4">
      <!-- 0.6 -->
      <g transform="translate(194.391891 326.197416) scale(0.1 -0.1)">
       <defs>
        <path id="DejaVuSans-19" d="M 2113 2584 
Q 1688 2584 1439 2293 
Q 1191 2003 1191 1497 
Q 1191 994 1439 701 
Q 1688 409 2113 409 
Q 2538 409 2786 701 
Q 3034 994 3034 1497 
Q 3034 2003 2786 2293 
Q 2538 2584 2113 2584 
z
M 3366 4563 
L 3366 3988 
Q 3128 4100 2886 4159 
Q 2644 4219 2406 4219 
Q 1781 4219 1451 3797 
Q 1122 3375 1075 2522 
Q 1259 2794 1537 2939 
Q 1816 3084 2150 3084 
Q 2853 3084 3261 2657 
Q 3669 2231 3669 1497 
Q 3669 778 3244 343 
Q 2819 -91 2113 -91 
Q 1303 -91 875 529 
Q 447 1150 447 2328 
Q 447 3434 972 4092 
Q 1497 4750 2381 4750 
Q 2619 4750 2861 4703 
Q 3103 4656 3366 4563 
z
" transform="scale(0.015625)"/>
       </defs>
       <use xlink:href="#DejaVuSans-13"/>
       <use xlink:href="#DejaVuSans-11" transform="translate(63.625 0)"/>
       <use xlink:href="#DejaVuSans-19" transform="translate(95.40625 0)"/>
      </g>
     </g>
    </g>
    <g id="xtick_5">
     <g id="line2d_9">
      <path d="M 254.318559 311.59976 
L 254.318559 51.724236 
" clip-path="url(#p23477f7217)" style="fill: none; stroke: #b0b0b0; stroke-opacity: 0.12; stroke-width: 0.8; stroke-linecap: square"/>
     </g>
     <g id="line2d_10">
      <g>
       <use xlink:href="#m865562ee36" x="254.318559" y="311.59976" style="stroke: #000000; stroke-width: 0.8"/>
      </g>
     </g>
     <g id="text_5">
      <!-- 0.8 -->
      <g transform="translate(246.366996 326.197416) scale(0.1 -0.1)">
       <defs>
        <path id="DejaVuSans-1b" d="M 2034 2216 
Q 1584 2216 1326 1975 
Q 1069 1734 1069 1313 
Q 1069 891 1326 650 
Q 1584 409 2034 409 
Q 2484 409 2743 651 
Q 3003 894 3003 1313 
Q 3003 1734 2745 1975 
Q 2488 2216 2034 2216 
z
M 1403 2484 
Q 997 2584 770 2862 
Q 544 3141 544 3541 
Q 544 4100 942 4425 
Q 1341 4750 2034 4750 
Q 2731 4750 3128 4425 
Q 3525 4100 3525 3541 
Q 3525 3141 3298 2862 
Q 3072 2584 2669 2484 
Q 3125 2378 3379 2068 
Q 3634 1759 3634 1313 
Q 3634 634 3220 271 
Q 2806 -91 2034 -91 
Q 1263 -91 848 271 
Q 434 634 434 1313 
Q 434 1759 690 2068 
Q 947 2378 1403 2484 
z
M 1172 3481 
Q 1172 3119 1398 2916 
Q 1625 2713 2034 2713 
Q 2441 2713 2670 2916 
Q 2900 3119 2900 3481 
Q 2900 3844 2670 4047 
Q 2441 4250 2034 4250 
Q 1625 4250 1398 4047 
Q 1172 3844 1172 3481 
z
" transform="scale(0.015625)"/>
       </defs>
       <use xlink:href="#DejaVuSans-13"/>
       <use xlink:href="#DejaVuSans-11" transform="translate(63.625 0)"/>
       <use xlink:href="#DejaVuSans-1b" transform="translate(95.40625 0)"/>
      </g>
     </g>
    </g>
    <g id="xtick_6">
     <g id="line2d_11">
      <path d="M 306.293663 311.59976 
L 306.293663 51.724236 
" clip-path="url(#p23477f7217)" style="fill: none; stroke: #b0b0b0; stroke-opacity: 0.12; stroke-width: 0.8; stroke-linecap: square"/>
     </g>
     <g id="line2d_12">
      <g>
       <use xlink:href="#m865562ee36" x="306.293663" y="311.59976" style="stroke: #000000; stroke-width: 0.8"/>
      </g>
     </g>
     <g id="text_6">
      <!-- 1.0 -->
      <g transform="translate(298.342101 326.197416) scale(0.1 -0.1)">
       <defs>
        <path id="DejaVuSans-14" d="M 794 531 
L 1825 531 
L 1825 4091 
L 703 3866 
L 703 4441 
L 1819 4666 
L 2450 4666 
L 2450 531 
L 3481 531 
L 3481 0 
L 794 0 
L 794 531 
z
" transform="scale(0.015625)"/>
       </defs>
       <use xlink:href="#DejaVuSans-14"/>
       <use xlink:href="#DejaVuSans-11" transform="translate(63.625 0)"/>
       <use xlink:href="#DejaVuSans-13" transform="translate(95.40625 0)"/>
      </g>
     </g>
    </g>
    <g id="text_7">
     <!-- x -->
     <g transform="translate(173.396526 340.197416) scale(0.1 -0.1)">
      <defs>
       <path id="DejaVuSans-5b" d="M 3513 3500 
L 2247 1797 
L 3578 0 
L 2900 0 
L 1881 1375 
L 863 0 
L 184 0 
L 1544 1831 
L 300 3500 
L 978 3500 
L 1906 2253 
L 2834 3500 
L 3513 3500 
z
" transform="scale(0.015625)"/>
      </defs>
      <use xlink:href="#DejaVuSans-5b"/>
     </g>
    </g>
   </g>
   <g id="matplotlib.axis_2">
    <g id="ytick_1">
     <g id="line2d_13">
      <path d="M 46.418139 311.59976 
L 306.293663 311.59976 
" clip-path="url(#p23477f7217)" style="fill: none; stroke: #b0b0b0; stroke-opacity: 0.12; stroke-width: 0.8; stroke-linecap: square"/>
     </g>
     <g id="line2d_14">
      <defs>
       <path id="mb7508c1bee" d="M 0 0 
L -3.5 0 
" style="stroke: #000000; stroke-width: 0.8"/>
      </defs>
      <g>
       <use xlink:href="#mb7508c1bee" x="46.418139" y="311.59976" style="stroke: #000000; stroke-width: 0.8"/>
      </g>
     </g>
     <g id="text_8">
      <!-- 0.0 -->
      <g transform="translate(23.515014 315.398588) scale(0.1 -0.1)">
       <use xlink:href="#DejaVuSans-13"/>
       <use xlink:href="#DejaVuSans-11" transform="translate(63.625 0)"/>
       <use xlink:href="#DejaVuSans-13" transform="translate(95.40625 0)"/>
      </g>
     </g>
    </g>
    <g id="ytick_2">
     <g id="line2d_15">
      <path d="M 46.418139 259.624655 
L 306.293663 259.624655 
" clip-path="url(#p23477f7217)" style="fill: none; stroke: #b0b0b0; stroke-opacity: 0.12; stroke-width: 0.8; stroke-linecap: square"/>
     </g>
     <g id="line2d_16">
      <g>
       <use xlink:href="#mb7508c1bee" x="46.418139" y="259.624655" style="stroke: #000000; stroke-width: 0.8"/>
      </g>
     </g>
     <g id="text_9">
      <!-- 0.2 -->
      <g transform="translate(23.515014 263.423483) scale(0.1 -0.1)">
       <use xlink:href="#DejaVuSans-13"/>
       <use xlink:href="#DejaVuSans-11" transform="translate(63.625 0)"/>
       <use xlink:href="#DejaVuSans-15" transform="translate(95.40625 0)"/>
      </g>
     </g>
    </g>
    <g id="ytick_3">
     <g id="line2d_17">
      <path d="M 46.418139 207.64955 
L 306.293663 207.64955 
" clip-path="url(#p23477f7217)" style="fill: none; stroke: #b0b0b0; stroke-opacity: 0.12; stroke-width: 0.8; stroke-linecap: square"/>
     </g>
     <g id="line2d_18">
      <g>
       <use xlink:href="#mb7508c1bee" x="46.418139" y="207.64955" style="stroke: #000000; stroke-width: 0.8"/>
      </g>
     </g>
     <g id="text_10">
      <!-- 0.4 -->
      <g transform="translate(23.515014 211.448378) scale(0.1 -0.1)">
       <use xlink:href="#DejaVuSans-13"/>
       <use xlink:href="#DejaVuSans-11" transform="translate(63.625 0)"/>
       <use xlink:href="#DejaVuSans-17" transform="translate(95.40625 0)"/>
      </g>
     </g>
    </g>
    <g id="ytick_4">
     <g id="line2d_19">
      <path d="M 46.418139 155.674445 
L 306.293663 155.674445 
" clip-path="url(#p23477f7217)" style="fill: none; stroke: #b0b0b0; stroke-opacity: 0.12; stroke-width: 0.8; stroke-linecap: square"/>
     </g>
     <g id="line2d_20">
      <g>
       <use xlink:href="#mb7508c1bee" x="46.418139" y="155.674445" style="stroke: #000000; stroke-width: 0.8"/>
      </g>
     </g>
     <g id="text_11">
      <!-- 0.6 -->
      <g transform="translate(23.515014 159.473273) scale(0.1 -0.1)">
       <use xlink:href="#DejaVuSans-13"/>
       <use xlink:href="#DejaVuSans-11" transform="translate(63.625 0)"/>
       <use xlink:href="#DejaVuSans-19" transform="translate(95.40625 0)"/>
      </g>
     </g>
    </g>
    <g id="ytick_5">
     <g id="line2d_21">
      <path d="M 46.418139 103.69934 
L 306.293663 103.69934 
" clip-path="url(#p23477f7217)" style="fill: none; stroke: #b0b0b0; stroke-opacity: 0.12; stroke-width: 0.8; stroke-linecap: square"/>
     </g>
     <g id="line2d_22">
      <g>
       <use xlink:href="#mb7508c1bee" x="46.418139" y="103.69934" style="stroke: #000000; stroke-width: 0.8"/>
      </g>
     </g>
     <g id="text_12">
      <!-- 0.8 -->
      <g transform="translate(23.515014 107.498169) scale(0.1 -0.1)">
       <use xlink:href="#DejaVuSans-13"/>
       <use xlink:href="#DejaVuSans-11" transform="translate(63.625 0)"/>
       <use xlink:href="#DejaVuSans-1b" transform="translate(95.40625 0)"/>
      </g>
     </g>
    </g>
    <g id="ytick_6">
     <g id="line2d_23">
      <path d="M 46.418139 51.724236 
L 306.293663 51.724236 
" clip-path="url(#p23477f7217)" style="fill: none; stroke: #b0b0b0; stroke-opacity: 0.12; stroke-width: 0.8; stroke-linecap: square"/>
     </g>
     <g id="line2d_24">
      <g>
       <use xlink:href="#mb7508c1bee" x="46.418139" y="51.724236" style="stroke: #000000; stroke-width: 0.8"/>
      </g>
     </g>
     <g id="text_13">
      <!-- 1.0 -->
      <g transform="translate(23.515014 55.523064) scale(0.1 -0.1)">
       <use xlink:href="#DejaVuSans-14"/>
       <use xlink:href="#DejaVuSans-11" transform="translate(63.625 0)"/>
       <use xlink:href="#DejaVuSans-13" transform="translate(95.40625 0)"/>
      </g>
     </g>
    </g>
    <g id="text_14">
     <!-- y -->
     <g transform="translate(17.11267 184.621373) rotate(-90) scale(0.1 -0.1)">
      <defs>
       <path id="DejaVuSans-5c" d="M 2059 -325 
Q 1816 -950 1584 -1140 
Q 1353 -1331 966 -1331 
L 506 -1331 
L 506 -850 
L 844 -850 
Q 1081 -850 1212 -737 
Q 1344 -625 1503 -206 
L 1606 56 
L 191 3500 
L 800 3500 
L 1894 763 
L 2988 3500 
L 3597 3500 
L 2059 -325 
z
" transform="scale(0.015625)"/>
      </defs>
      <use xlink:href="#DejaVuSans-5c"/>
     </g>
    </g>
   </g>
   <g id="patch_29">
    <path d="M 46.418139 311.59976 
L 46.418139 51.724236 
" style="fill: none; stroke: #000000; stroke-width: 0.8; stroke-linejoin: miter; stroke-linecap: square"/>
   </g>
   <g id="patch_30">
    <path d="M 306.293663 311.59976 
L 306.293663 51.724236 
" style="fill: none; stroke: #000000; stroke-width: 0.8; stroke-linejoin: miter; stroke-linecap: square"/>
   </g>
   <g id="patch_31">
    <path d="M 46.418139 311.59976 
L 306.293663 311.59976 
" style="fill: none; stroke: #000000; stroke-width: 0.8; stroke-linejoin: miter; stroke-linecap: square"/>
   </g>
   <g id="patch_32">
    <path d="M 46.418139 51.724236 
L 306.293663 51.724236 
" style="fill: none; stroke: #000000; stroke-width: 0.8; stroke-linejoin: miter; stroke-linecap: square"/>
   </g>
   <g id="text_15">
    <!-- 1 -->
    <g style="fill: #ffffff" transform="translate(174.447151 183.220592) scale(0.06 -0.06)">
     <use xlink:href="#DejaVuSans-14"/>
    </g>
   </g>
   <g id="text_16">
    <!-- 2 -->
    <g style="fill: #ffffff" transform="translate(252.409809 183.220592) scale(0.06 -0.06)">
     <use xlink:href="#DejaVuSans-15"/>
    </g>
   </g>
   <g id="text_17">
    <!-- 3 -->
    <g style="fill: #ffffff" transform="translate(229.575075 128.092668) scale(0.06 -0.06)">
     <defs>
      <path id="DejaVuSans-16" d="M 2597 2516 
Q 3050 2419 3304 2112 
Q 3559 1806 3559 1356 
Q 3559 666 3084 287 
Q 2609 -91 1734 -91 
Q 1441 -91 1130 -33 
Q 819 25 488 141 
L 488 750 
Q 750 597 1062 519 
Q 1375 441 1716 441 
Q 2309 441 2620 675 
Q 2931 909 2931 1356 
Q 2931 1769 2642 2001 
Q 2353 2234 1838 2234 
L 1294 2234 
L 1294 2753 
L 1863 2753 
Q 2328 2753 2575 2939 
Q 2822 3125 2822 3475 
Q 2822 3834 2567 4026 
Q 2313 4219 1838 4219 
Q 1578 4219 1281 4162 
Q 984 4106 628 3988 
L 628 4550 
Q 988 4650 1302 4700 
Q 1616 4750 1894 4750 
Q 2613 4750 3031 4423 
Q 3450 4097 3450 3541 
Q 3450 3153 3228 2886 
Q 3006 2619 2597 2516 
z
" transform="scale(0.015625)"/>
     </defs>
     <use xlink:href="#DejaVuSans-16"/>
    </g>
   </g>
   <g id="text_18">
    <!-- 4 -->
    <g style="fill: #ffffff" transform="translate(174.447151 105.257934) scale(0.06 -0.06)">
     <use xlink:href="#DejaVuSans-17"/>
    </g>
   </g>
   <g id="text_19">
    <!-- 5 -->
    <g style="fill: #ffffff" transform="translate(119.319228 128.092668) scale(0.06 -0.06)">
     <defs>
      <path id="DejaVuSans-18" d="M 691 4666 
L 3169 4666 
L 3169 4134 
L 1269 4134 
L 1269 2991 
Q 1406 3038 1543 3061 
Q 1681 3084 1819 3084 
Q 2600 3084 3056 2656 
Q 3513 2228 3513 1497 
Q 3513 744 3044 326 
Q 2575 -91 1722 -91 
Q 1428 -91 1123 -41 
Q 819 9 494 109 
L 494 744 
Q 775 591 1075 516 
Q 1375 441 1709 441 
Q 2250 441 2565 725 
Q 2881 1009 2881 1497 
Q 2881 1984 2565 2268 
Q 2250 2553 1709 2553 
Q 1456 2553 1204 2497 
Q 953 2441 691 2322 
L 691 4666 
z
" transform="scale(0.015625)"/>
     </defs>
     <use xlink:href="#DejaVuSans-18"/>
    </g>
   </g>
   <g id="text_20">
    <!-- 6 -->
    <g style="fill: #ffffff" transform="translate(96.484494 183.220592) scale(0.06 -0.06)">
     <use xlink:href="#DejaVuSans-19"/>
    </g>
   </g>
   <g id="text_21">
    <!-- 7 -->
    <g style="fill: #ffffff" transform="translate(119.319228 238.348515) scale(0.06 -0.06)">
     <defs>
      <path id="DejaVuSans-1a" d="M 525 4666 
L 3525 4666 
L 3525 4397 
L 1831 0 
L 1172 0 
L 2766 4134 
L 525 4134 
L 525 4666 
z
" transform="scale(0.015625)"/>
     </defs>
     <use xlink:href="#DejaVuSans-1a"/>
    </g>
   </g>
   <g id="text_22">
    <!-- 8 -->
    <g style="fill: #ffffff" transform="translate(174.447151 261.183249) scale(0.06 -0.06)">
     <use xlink:href="#DejaVuSans-1b"/>
    </g>
   </g>
   <g id="text_23">
    <!-- 9 -->
    <g style="fill: #ffffff" transform="translate(229.575075 238.348515) scale(0.06 -0.06)">
     <defs>
      <path id="DejaVuSans-1c" d="M 703 97 
L 703 672 
Q 941 559 1184 500 
Q 1428 441 1663 441 
Q 2288 441 2617 861 
Q 2947 1281 2994 2138 
Q 2813 1869 2534 1725 
Q 2256 1581 1919 1581 
Q 1219 1581 811 2004 
Q 403 2428 403 3163 
Q 403 3881 828 4315 
Q 1253 4750 1959 4750 
Q 2769 4750 3195 4129 
Q 3622 3509 3622 2328 
Q 3622 1225 3098 567 
Q 2575 -91 1691 -91 
Q 1453 -91 1209 -44 
Q 966 3 703 97 
z
M 1959 2075 
Q 2384 2075 2632 2365 
Q 2881 2656 2881 3163 
Q 2881 3666 2632 3958 
Q 2384 4250 1959 4250 
Q 1534 4250 1286 3958 
Q 1038 3666 1038 3163 
Q 1038 2656 1286 2365 
Q 1534 2075 1959 2075 
z
" transform="scale(0.015625)"/>
     </defs>
     <use xlink:href="#DejaVuSans-1c"/>
    </g>
   </g>
   <g id="text_24">
    <!-- 26 -->
    <g style="fill: #ffffff" transform="translate(221.886289 90.245635) scale(0.06 -0.06)">
     <use xlink:href="#DejaVuSans-15"/>
     <use xlink:href="#DejaVuSans-19" transform="translate(63.625 0)"/>
    </g>
   </g>
   <g id="text_25">
    <!-- Provided seed -->
    <g transform="translate(134.084026 31.320954) scale(0.12 -0.12)">
     <defs>
      <path id="DejaVuSans-33" d="M 1259 4147 
L 1259 2394 
L 2053 2394 
Q 2494 2394 2734 2622 
Q 2975 2850 2975 3272 
Q 2975 3691 2734 3919 
Q 2494 4147 2053 4147 
L 1259 4147 
z
M 628 4666 
L 2053 4666 
Q 2838 4666 3239 4311 
Q 3641 3956 3641 3272 
Q 3641 2581 3239 2228 
Q 2838 1875 2053 1875 
L 1259 1875 
L 1259 0 
L 628 0 
L 628 4666 
z
" transform="scale(0.015625)"/>
      <path id="DejaVuSans-55" d="M 2631 2963 
Q 2534 3019 2420 3045 
Q 2306 3072 2169 3072 
Q 1681 3072 1420 2755 
Q 1159 2438 1159 1844 
L 1159 0 
L 581 0 
L 581 3500 
L 1159 3500 
L 1159 2956 
Q 1341 3275 1631 3429 
Q 1922 3584 2338 3584 
Q 2397 3584 2469 3576 
Q 2541 3569 2628 3553 
L 2631 2963 
z
" transform="scale(0.015625)"/>
      <path id="DejaVuSans-52" d="M 1959 3097 
Q 1497 3097 1228 2736 
Q 959 2375 959 1747 
Q 959 1119 1226 758 
Q 1494 397 1959 397 
Q 2419 397 2687 759 
Q 2956 1122 2956 1747 
Q 2956 2369 2687 2733 
Q 2419 3097 1959 3097 
z
M 1959 3584 
Q 2709 3584 3137 3096 
Q 3566 2609 3566 1747 
Q 3566 888 3137 398 
Q 2709 -91 1959 -91 
Q 1206 -91 779 398 
Q 353 888 353 1747 
Q 353 2609 779 3096 
Q 1206 3584 1959 3584 
z
" transform="scale(0.015625)"/>
      <path id="DejaVuSans-59" d="M 191 3500 
L 800 3500 
L 1894 563 
L 2988 3500 
L 3597 3500 
L 2284 0 
L 1503 0 
L 191 3500 
z
" transform="scale(0.015625)"/>
      <path id="DejaVuSans-4c" d="M 603 3500 
L 1178 3500 
L 1178 0 
L 603 0 
L 603 3500 
z
M 603 4863 
L 1178 4863 
L 1178 4134 
L 603 4134 
L 603 4863 
z
" transform="scale(0.015625)"/>
      <path id="DejaVuSans-47" d="M 2906 2969 
L 2906 4863 
L 3481 4863 
L 3481 0 
L 2906 0 
L 2906 525 
Q 2725 213 2448 61 
Q 2172 -91 1784 -91 
Q 1150 -91 751 415 
Q 353 922 353 1747 
Q 353 2572 751 3078 
Q 1150 3584 1784 3584 
Q 2172 3584 2448 3432 
Q 2725 3281 2906 2969 
z
M 947 1747 
Q 947 1113 1208 752 
Q 1469 391 1925 391 
Q 2381 391 2643 752 
Q 2906 1113 2906 1747 
Q 2906 2381 2643 2742 
Q 2381 3103 1925 3103 
Q 1469 3103 1208 2742 
Q 947 2381 947 1747 
z
" transform="scale(0.015625)"/>
      <path id="DejaVuSans-48" d="M 3597 1894 
L 3597 1613 
L 953 1613 
Q 991 1019 1311 708 
Q 1631 397 2203 397 
Q 2534 397 2845 478 
Q 3156 559 3463 722 
L 3463 178 
Q 3153 47 2828 -22 
Q 2503 -91 2169 -91 
Q 1331 -91 842 396 
Q 353 884 353 1716 
Q 353 2575 817 3079 
Q 1281 3584 2069 3584 
Q 2775 3584 3186 3129 
Q 3597 2675 3597 1894 
z
M 3022 2063 
Q 3016 2534 2758 2815 
Q 2500 3097 2075 3097 
Q 1594 3097 1305 2825 
Q 1016 2553 972 2059 
L 3022 2063 
z
" transform="scale(0.015625)"/>
      <path id="DejaVuSans-3" transform="scale(0.015625)"/>
      <path id="DejaVuSans-56" d="M 2834 3397 
L 2834 2853 
Q 2591 2978 2328 3040 
Q 2066 3103 1784 3103 
Q 1356 3103 1142 2972 
Q 928 2841 928 2578 
Q 928 2378 1081 2264 
Q 1234 2150 1697 2047 
L 1894 2003 
Q 2506 1872 2764 1633 
Q 3022 1394 3022 966 
Q 3022 478 2636 193 
Q 2250 -91 1575 -91 
Q 1294 -91 989 -36 
Q 684 19 347 128 
L 347 722 
Q 666 556 975 473 
Q 1284 391 1588 391 
Q 1994 391 2212 530 
Q 2431 669 2431 922 
Q 2431 1156 2273 1281 
Q 2116 1406 1581 1522 
L 1381 1569 
Q 847 1681 609 1914 
Q 372 2147 372 2553 
Q 372 3047 722 3315 
Q 1072 3584 1716 3584 
Q 2034 3584 2315 3537 
Q 2597 3491 2834 3397 
z
" transform="scale(0.015625)"/>
     </defs>
     <use xlink:href="#DejaVuSans-33"/>
     <use xlink:href="#DejaVuSans-55" transform="translate(58.546875 0)"/>
     <use xlink:href="#DejaVuSans-52" transform="translate(97.453125 0)"/>
     <use xlink:href="#DejaVuSans-59" transform="translate(158.640625 0)"/>
     <use xlink:href="#DejaVuSans-4c" transform="translate(217.828125 0)"/>
     <use xlink:href="#DejaVuSans-47" transform="translate(245.609375 0)"/>
     <use xlink:href="#DejaVuSans-48" transform="translate(309.09375 0)"/>
     <use xlink:href="#DejaVuSans-47" transform="translate(370.625 0)"/>
     <use xlink:href="#DejaVuSans-3" transform="translate(434.109375 0)"/>
     <use xlink:href="#DejaVuSans-56" transform="translate(465.890625 0)"/>
     <use xlink:href="#DejaVuSans-48" transform="translate(517.984375 0)"/>
     <use xlink:href="#DejaVuSans-48" transform="translate(579.515625 0)"/>
     <use xlink:href="#DejaVuSans-47" transform="translate(641.046875 0)"/>
    </g>
    <!-- Radius sum 1.012419 -->
    <g transform="translate(111.022464 45.724236) scale(0.12 -0.12)">
     <defs>
      <path id="DejaVuSans-35" d="M 2841 2188 
Q 3044 2119 3236 1894 
Q 3428 1669 3622 1275 
L 4263 0 
L 3584 0 
L 2988 1197 
Q 2756 1666 2539 1819 
Q 2322 1972 1947 1972 
L 1259 1972 
L 1259 0 
L 628 0 
L 628 4666 
L 2053 4666 
Q 2853 4666 3247 4331 
Q 3641 3997 3641 3322 
Q 3641 2881 3436 2590 
Q 3231 2300 2841 2188 
z
M 1259 4147 
L 1259 2491 
L 2053 2491 
Q 2509 2491 2742 2702 
Q 2975 2913 2975 3322 
Q 2975 3731 2742 3939 
Q 2509 4147 2053 4147 
L 1259 4147 
z
" transform="scale(0.015625)"/>
      <path id="DejaVuSans-44" d="M 2194 1759 
Q 1497 1759 1228 1600 
Q 959 1441 959 1056 
Q 959 750 1161 570 
Q 1363 391 1709 391 
Q 2188 391 2477 730 
Q 2766 1069 2766 1631 
L 2766 1759 
L 2194 1759 
z
M 3341 1997 
L 3341 0 
L 2766 0 
L 2766 531 
Q 2569 213 2275 61 
Q 1981 -91 1556 -91 
Q 1019 -91 701 211 
Q 384 513 384 1019 
Q 384 1609 779 1909 
Q 1175 2209 1959 2209 
L 2766 2209 
L 2766 2266 
Q 2766 2663 2505 2880 
Q 2244 3097 1772 3097 
Q 1472 3097 1187 3025 
Q 903 2953 641 2809 
L 641 3341 
Q 956 3463 1253 3523 
Q 1550 3584 1831 3584 
Q 2591 3584 2966 3190 
Q 3341 2797 3341 1997 
z
" transform="scale(0.015625)"/>
      <path id="DejaVuSans-58" d="M 544 1381 
L 544 3500 
L 1119 3500 
L 1119 1403 
Q 1119 906 1312 657 
Q 1506 409 1894 409 
Q 2359 409 2629 706 
Q 2900 1003 2900 1516 
L 2900 3500 
L 3475 3500 
L 3475 0 
L 2900 0 
L 2900 538 
Q 2691 219 2414 64 
Q 2138 -91 1772 -91 
Q 1169 -91 856 284 
Q 544 659 544 1381 
z
M 1991 3584 
L 1991 3584 
z
" transform="scale(0.015625)"/>
      <path id="DejaVuSans-50" d="M 3328 2828 
Q 3544 3216 3844 3400 
Q 4144 3584 4550 3584 
Q 5097 3584 5394 3201 
Q 5691 2819 5691 2113 
L 5691 0 
L 5113 0 
L 5113 2094 
Q 5113 2597 4934 2840 
Q 4756 3084 4391 3084 
Q 3944 3084 3684 2787 
Q 3425 2491 3425 1978 
L 3425 0 
L 2847 0 
L 2847 2094 
Q 2847 2600 2669 2842 
Q 2491 3084 2119 3084 
Q 1678 3084 1418 2786 
Q 1159 2488 1159 1978 
L 1159 0 
L 581 0 
L 581 3500 
L 1159 3500 
L 1159 2956 
Q 1356 3278 1631 3431 
Q 1906 3584 2284 3584 
Q 2666 3584 2933 3390 
Q 3200 3197 3328 2828 
z
" transform="scale(0.015625)"/>
     </defs>
     <use xlink:href="#DejaVuSans-35"/>
     <use xlink:href="#DejaVuSans-44" transform="translate(67.28125 0)"/>
     <use xlink:href="#DejaVuSans-47" transform="translate(128.5625 0)"/>
     <use xlink:href="#DejaVuSans-4c" transform="translate(192.046875 0)"/>
     <use xlink:href="#DejaVuSans-58" transform="translate(219.828125 0)"/>
     <use xlink:href="#DejaVuSans-56" transform="translate(283.203125 0)"/>
     <use xlink:href="#DejaVuSans-3" transform="translate(335.296875 0)"/>
     <use xlink:href="#DejaVuSans-56" transform="translate(367.078125 0)"/>
     <use xlink:href="#DejaVuSans-58" transform="translate(419.171875 0)"/>
     <use xlink:href="#DejaVuSans-50" transform="translate(482.546875 0)"/>
     <use xlink:href="#DejaVuSans-3" transform="translate(579.953125 0)"/>
     <use xlink:href="#DejaVuSans-14" transform="translate(611.734375 0)"/>
     <use xlink:href="#DejaVuSans-11" transform="translate(675.359375 0)"/>
     <use xlink:href="#DejaVuSans-13" transform="translate(707.140625 0)"/>
     <use xlink:href="#DejaVuSans-14" transform="translate(770.765625 0)"/>
     <use xlink:href="#DejaVuSans-15" transform="translate(834.390625 0)"/>
     <use xlink:href="#DejaVuSans-17" transform="translate(898.015625 0)"/>
     <use xlink:href="#DejaVuSans-14" transform="translate(961.640625 0)"/>
     <use xlink:href="#DejaVuSans-1c" transform="translate(1025.265625 0)"/>
    </g>
   </g>
  </g>
  <g id="axes_2">
   <g id="patch_33">
    <path d="M 370.657899 311.59976 
L 630.533423 311.59976 
L 630.533423 51.724236 
L 370.657899 51.724236 
z
" style="fill: #ffffff"/>
   </g>
   <g id="patch_34">
    <path d="M 390.922921 311.59976 
C 396.297268 311.59976 401.452219 309.464509 405.252456 305.664272 
C 409.052693 301.864035 411.187943 296.709085 411.187943 291.334738 
C 411.187943 285.960391 409.052693 280.80544 405.252456 277.005203 
C 401.452219 273.204967 396.297268 271.069716 390.922921 271.069716 
C 385.548574 271.069716 380.393624 273.204967 376.593387 277.005203 
C 372.79315 280.80544 370.657899 285.960391 370.657899 291.334738 
C 370.657899 296.709085 372.79315 301.864035 376.593387 305.664272 
C 380.393624 309.464509 385.548574 311.59976 390.922921 311.59976 
z
" clip-path="url(#p2b41b2a254)" style="fill: #1f958b; opacity: 0.82; stroke: #16324f; stroke-width: 0.8; stroke-linejoin: miter"/>
   </g>
   <g id="patch_35">
    <path d="M 435.006893 311.59976 
C 441.365075 311.59976 447.463699 309.073627 451.959613 304.577714 
C 456.455526 300.0818 458.981659 293.983177 458.981659 287.624994 
C 458.981659 281.266812 456.455526 275.168189 451.959613 270.672275 
C 447.463699 266.176362 441.365075 263.650229 435.006893 263.650229 
C 428.648711 263.650229 422.550088 266.176362 418.054174 270.672275 
C 413.55826 275.168189 411.032128 281.266812 411.032128 287.624994 
C 411.032128 293.983177 413.55826 300.0818 418.054174 304.577714 
C 422.550088 309.073627 428.648711 311.59976 435.006893 311.59976 
z
" clip-path="url(#p2b41b2a254)" style="fill: #25ac82; opacity: 0.82; stroke: #16324f; stroke-width: 0.8; stroke-linejoin: miter"/>
   </g>
   <g id="patch_36">
    <path d="M 475.881435 311.59976 
C 480.501734 311.59976 484.933419 309.764096 488.200463 306.497052 
C 491.467508 303.230007 493.303172 298.798322 493.303172 294.178023 
C 493.303172 289.557725 491.467508 285.12604 488.200463 281.858995 
C 484.933419 278.591951 480.501734 276.756287 475.881435 276.756287 
C 471.261137 276.756287 466.829452 278.591951 463.562407 281.858995 
C 460.295363 285.12604 458.459699 289.557725 458.459699 294.178023 
C 458.459699 298.798322 460.295363 303.230007 463.562407 306.497052 
C 466.829452 309.764096 471.261137 311.59976 475.881435 311.59976 
z
" clip-path="url(#p2b41b2a254)" style="fill: #25838e; opacity: 0.82; stroke: #16324f; stroke-width: 0.8; stroke-linejoin: miter"/>
   </g>
   <g id="patch_37">
    <path d="M 520.514876 311.59976 
C 528.096249 311.59976 535.36813 308.587648 540.728971 303.226808 
C 546.089811 297.865967 549.101923 290.594086 549.101923 283.012713 
C 549.101923 275.43134 546.089811 268.159459 540.728971 262.798618 
C 535.36813 257.437778 528.096249 254.425666 520.514876 254.425666 
C 512.933502 254.425666 505.661622 257.437778 500.300781 262.798618 
C 494.93994 268.159459 491.927829 275.43134 491.927829 283.012713 
C 491.927829 290.594086 494.93994 297.865967 500.300781 303.226808 
C 505.661622 308.587648 512.933502 311.59976 520.514876 311.59976 
z
" clip-path="url(#p2b41b2a254)" style="fill: #54c568; opacity: 0.82; stroke: #16324f; stroke-width: 0.8; stroke-linejoin: miter"/>
   </g>
   <g id="patch_38">
    <path d="M 562.189106 311.59976 
C 566.217059 311.59976 570.080581 309.999437 572.928774 307.151244 
C 575.776967 304.30305 577.37729 300.439529 577.37729 296.411575 
C 577.37729 292.383621 575.776967 288.5201 572.928774 285.671907 
C 570.080581 282.823713 566.217059 281.22339 562.189106 281.22339 
C 558.161152 281.22339 554.29763 282.823713 551.449437 285.671907 
C 548.601244 288.5201 547.000921 292.383621 547.000921 296.411575 
C 547.000921 300.439529 548.601244 304.30305 551.449437 307.151244 
C 554.29763 309.999437 558.161152 311.59976 562.189106 311.59976 
z
" clip-path="url(#p2b41b2a254)" style="fill: #2b758e; opacity: 0.82; stroke: #16324f; stroke-width: 0.8; stroke-linejoin: miter"/>
   </g>
   <g id="patch_39">
    <path d="M 603.050565 311.59976 
C 610.339105 311.59976 617.330105 308.703993 622.483881 303.550217 
C 627.637656 298.396442 630.533423 291.405441 630.533423 284.116902 
C 630.533423 276.828363 627.637656 269.837362 622.483881 264.683587 
C 617.330105 259.529811 610.339105 256.634044 603.050565 256.634044 
C 595.762026 256.634044 588.771026 259.529811 583.61725 264.683587 
C 578.463475 269.837362 575.567708 276.828363 575.567708 284.116902 
C 575.567708 291.405441 578.463475 298.396442 583.61725 303.550217 
C 588.771026 308.703993 595.762026 311.59976 603.050565 311.59976 
z
" clip-path="url(#p2b41b2a254)" style="fill: #46c06f; opacity: 0.82; stroke: #16324f; stroke-width: 0.8; stroke-linejoin: miter"/>
   </g>
   <g id="patch_40">
    <path d="M 404.068646 272.704366 
C 412.92928 272.704366 421.428197 269.183999 427.693612 262.918584 
C 433.959026 256.65317 437.479393 248.154252 437.479393 239.293619 
C 437.479393 230.432985 433.959026 221.934067 427.693612 215.668653 
C 421.428197 209.403239 412.92928 205.882872 404.068646 205.882872 
C 395.208012 205.882872 386.709094 209.403239 380.44368 215.668653 
C 374.178266 221.934067 370.657899 230.432985 370.657899 239.293619 
C 370.657899 248.154252 374.178266 256.65317 380.44368 262.918584 
C 386.709094 269.183999 395.208012 272.704366 404.068646 272.704366 
z
" clip-path="url(#p2b41b2a254)" style="fill: #a0da39; opacity: 0.82; stroke: #16324f; stroke-width: 0.8; stroke-linejoin: miter"/>
   </g>
   <g id="patch_41">
    <path d="M 472.142677 276.890491 
C 481.351559 276.890491 490.184508 273.231764 496.696171 266.720101 
C 503.207833 260.208439 506.866561 251.375489 506.866561 242.166608 
C 506.866561 232.957726 503.207833 224.124777 496.696171 217.613115 
C 490.184508 211.101452 481.351559 207.442725 472.142677 207.442725 
C 462.933796 207.442725 454.100847 211.101452 447.589184 217.613115 
C 441.077521 224.124777 437.418794 232.957726 437.418794 242.166608 
C 437.418794 251.375489 441.077521 260.208439 447.589184 266.720101 
C 454.100847 273.231764 462.933796 276.890491 472.142677 276.890491 
z
" clip-path="url(#p2b41b2a254)" style="fill: #b8de29; opacity: 0.82; stroke: #16324f; stroke-width: 0.8; stroke-linejoin: miter"/>
   </g>
   <g id="patch_42">
    <path d="M 533.289549 255.884119 
C 540.738897 255.884119 547.884141 252.924462 553.151626 247.656977 
C 558.41911 242.389493 561.378768 235.244248 561.378768 227.7949 
C 561.378768 220.345552 558.41911 213.200307 553.151626 207.932822 
C 547.884141 202.665338 540.738897 199.70568 533.289549 199.70568 
C 525.8402 199.70568 518.694956 202.665338 513.427471 207.932822 
C 508.159987 213.200307 505.200329 220.345552 505.200329 227.7949 
C 505.200329 235.244248 508.159987 242.389493 513.427471 247.656977 
C 518.694956 252.924462 525.8402 255.884119 533.289549 255.884119 
z
" clip-path="url(#p2b41b2a254)" style="fill: #4ec36b; opacity: 0.82; stroke: #16324f; stroke-width: 0.8; stroke-linejoin: miter"/>
   </g>
   <g id="patch_43">
    <path d="M 562.66976 281.226875 
C 567.434316 281.226875 572.00437 279.333896 575.37342 275.964847 
C 578.742469 272.595797 580.635448 268.025743 580.635448 263.261187 
C 580.635448 258.496631 578.742469 253.926578 575.37342 250.557528 
C 572.00437 247.188478 567.434316 245.2955 562.66976 245.2955 
C 557.905204 245.2955 553.335151 247.188478 549.966101 250.557528 
C 546.597051 253.926578 544.704073 258.496631 544.704073 263.261187 
C 544.704073 268.025743 546.597051 272.595797 549.966101 275.964847 
C 553.335151 279.333896 557.905204 281.226875 562.66976 281.226875 
z
" clip-path="url(#p2b41b2a254)" style="fill: #24868e; opacity: 0.82; stroke: #16324f; stroke-width: 0.8; stroke-linejoin: miter"/>
   </g>
   <g id="patch_44">
    <path d="M 595.838193 257.053762 
C 605.039476 257.053762 613.865137 253.398053 620.371426 246.891764 
C 626.877715 240.385475 630.533423 231.559814 630.533423 222.358532 
C 630.533423 213.157249 626.877715 204.331589 620.371426 197.825299 
C 613.865137 191.31901 605.039476 187.663302 595.838193 187.663302 
C 586.636911 187.663302 577.81125 191.31901 571.304961 197.825299 
C 564.798672 204.331589 561.142963 213.157249 561.142963 222.358532 
C 561.142963 231.559814 564.798672 240.385475 571.304961 246.891764 
C 577.81125 253.398053 586.636911 257.053762 595.838193 257.053762 
z
" clip-path="url(#p2b41b2a254)" style="fill: #b5de2b; opacity: 0.82; stroke: #16324f; stroke-width: 0.8; stroke-linejoin: miter"/>
   </g>
   <g id="patch_45">
    <path d="M 390.398353 207.670922 
C 395.633582 207.670922 400.655095 205.590943 404.356962 201.889077 
C 408.058828 198.187211 410.138807 193.165698 410.138807 187.930468 
C 410.138807 182.695239 408.058828 177.673726 404.356962 173.97186 
C 400.655095 170.269993 395.633582 168.190014 390.398353 168.190014 
C 385.163123 168.190014 380.14161 170.269993 376.439744 173.97186 
C 372.737878 177.673726 370.657899 182.695239 370.657899 187.930468 
C 370.657899 193.165698 372.737878 198.187211 376.439744 201.889077 
C 380.14161 205.590943 385.163123 207.670922 390.398353 207.670922 
z
" clip-path="url(#p2b41b2a254)" style="fill: #20928c; opacity: 0.82; stroke: #16324f; stroke-width: 0.8; stroke-linejoin: miter"/>
   </g>
   <g id="patch_46">
    <path d="M 439.128514 216.663204 
C 446.816855 216.663204 454.191336 213.608594 459.627814 208.172116 
C 465.064292 202.735638 468.118902 195.361157 468.118902 187.672816 
C 468.118902 179.984475 465.064292 172.609994 459.627814 167.173516 
C 454.191336 161.737038 446.816855 158.682428 439.128514 158.682428 
C 431.440173 158.682428 424.065692 161.737038 418.629214 167.173516 
C 413.192736 172.609994 410.138126 179.984475 410.138126 187.672816 
C 410.138126 195.361157 413.192736 202.735638 418.629214 208.172116 
C 424.065692 213.608594 431.440173 216.663204 439.128514 216.663204 
z
" clip-path="url(#p2b41b2a254)" style="fill: #5ac864; opacity: 0.82; stroke: #16324f; stroke-width: 0.8; stroke-linejoin: miter"/>
   </g>
   <g id="patch_47">
    <path d="M 497.15494 212.539546 
C 504.898186 212.539546 512.325332 209.463121 517.800634 203.987819 
C 523.275936 198.512517 526.35236 191.085372 526.35236 183.342126 
C 526.35236 175.598879 523.275936 168.171734 517.800634 162.696432 
C 512.325332 157.22113 504.898186 154.144705 497.15494 154.144705 
C 489.411694 154.144705 481.984548 157.22113 476.509246 162.696432 
C 471.033944 168.171734 467.95752 175.598879 467.95752 183.342126 
C 467.95752 191.085372 471.033944 198.512517 476.509246 203.987819 
C 481.984548 209.463121 489.411694 212.539546 497.15494 212.539546 
z
" clip-path="url(#p2b41b2a254)" style="fill: #5cc863; opacity: 0.82; stroke: #16324f; stroke-width: 0.8; stroke-linejoin: miter"/>
   </g>
   <g id="patch_48">
    <path d="M 553.96537 203.644007 
C 561.431618 203.644007 568.593073 200.677635 573.872507 195.398201 
C 579.151941 190.118767 582.118313 182.957312 582.118313 175.491064 
C 582.118313 168.024817 579.151941 160.863362 573.872507 155.583927 
C 568.593073 150.304493 561.431618 147.338121 553.96537 147.338121 
C 546.499122 147.338121 539.337668 150.304493 534.058233 155.583927 
C 528.778799 160.863362 525.812427 168.024817 525.812427 175.491064 
C 525.812427 182.957312 528.778799 190.118767 534.058233 195.398201 
C 539.337668 200.677635 546.499122 203.644007 553.96537 203.644007 
z
" clip-path="url(#p2b41b2a254)" style="fill: #4ec36b; opacity: 0.82; stroke: #16324f; stroke-width: 0.8; stroke-linejoin: miter"/>
   </g>
   <g id="patch_49">
    <path d="M 605.65 188.476792 
C 612.249161 188.476792 618.578926 185.854918 623.245237 181.188606 
C 627.911549 176.522295 630.533423 170.19253 630.533423 163.593369 
C 630.533423 156.994208 627.911549 150.664443 623.245237 145.998131 
C 618.578926 141.33182 612.249161 138.709945 605.65 138.709945 
C 599.050839 138.709945 592.721074 141.33182 588.054763 145.998131 
C 583.388451 150.664443 580.766577 156.994208 580.766577 163.593369 
C 580.766577 170.19253 583.388451 176.522295 588.054763 181.188606 
C 592.721074 185.854918 599.050839 188.476792 605.65 188.476792 
z
" clip-path="url(#p2b41b2a254)" style="fill: #2cb17e; opacity: 0.82; stroke: #16324f; stroke-width: 0.8; stroke-linejoin: miter"/>
   </g>
   <g id="patch_50">
    <path d="M 403.613709 169.874019 
C 412.353692 169.874019 420.736884 166.401587 426.916985 160.221486 
C 433.097087 154.041385 436.569519 145.658192 436.569519 136.918209 
C 436.569519 128.178226 433.097087 119.795034 426.916985 113.614933 
C 420.736884 107.434832 412.353692 103.9624 403.613709 103.9624 
C 394.873726 103.9624 386.490533 107.434832 380.310432 113.614933 
C 374.130331 119.795034 370.657899 128.178226 370.657899 136.918209 
C 370.657899 145.658192 374.130331 154.041385 380.310432 160.221486 
C 386.490533 166.401587 394.873726 169.874019 403.613709 169.874019 
z
" clip-path="url(#p2b41b2a254)" style="fill: #98d83e; opacity: 0.82; stroke: #16324f; stroke-width: 0.8; stroke-linejoin: miter"/>
   </g>
   <g id="patch_51">
    <path d="M 464.30668 164.576175 
C 471.662675 164.576175 478.718377 161.653607 483.919851 156.452133 
C 489.121325 151.25066 492.043893 144.194957 492.043893 136.838962 
C 492.043893 129.482967 489.121325 122.427265 483.919851 117.225791 
C 478.718377 112.024317 471.662675 109.101749 464.30668 109.101749 
C 456.950685 109.101749 449.894982 112.024317 444.693508 117.225791 
C 439.492035 122.427265 436.569467 129.482967 436.569467 136.838962 
C 436.569467 144.194957 439.492035 151.25066 444.693508 156.452133 
C 449.894982 161.653607 456.950685 164.576175 464.30668 164.576175 
z
" clip-path="url(#p2b41b2a254)" style="fill: #4ac16d; opacity: 0.82; stroke: #16324f; stroke-width: 0.8; stroke-linejoin: miter"/>
   </g>
   <g id="patch_52">
    <path d="M 519.868121 158.832958 
C 527.337826 158.832958 534.502597 155.865213 539.784477 150.583334 
C 545.066356 145.301454 548.034102 138.136683 548.034102 130.666977 
C 548.034102 123.197272 545.066356 116.0325 539.784477 110.750621 
C 534.502597 105.468741 527.337826 102.500996 519.868121 102.500996 
C 512.398415 102.500996 505.233644 105.468741 499.951764 110.750621 
C 494.669885 116.0325 491.702139 123.197272 491.702139 130.666977 
C 491.702139 138.136683 494.669885 145.301454 499.951764 150.583334 
C 505.233644 155.865213 512.398415 158.832958 519.868121 158.832958 
z
" clip-path="url(#p2b41b2a254)" style="fill: #4ec36b; opacity: 0.82; stroke: #16324f; stroke-width: 0.8; stroke-linejoin: miter"/>
   </g>
   <g id="patch_53">
    <path d="M 572.977206 150.841949 
C 579.654558 150.841949 586.059321 148.189009 590.780922 143.467409 
C 595.502523 138.745808 598.155463 132.341044 598.155463 125.663692 
C 598.155463 118.98634 595.502523 112.581577 590.780922 107.859976 
C 586.059321 103.138375 579.654558 100.485435 572.977206 100.485435 
C 566.299854 100.485435 559.89509 103.138375 555.173489 107.859976 
C 550.451888 112.581577 547.798948 118.98634 547.798948 125.663692 
C 547.798948 132.341044 550.451888 138.745808 555.173489 143.467409 
C 559.89509 148.189009 566.299854 150.841949 572.977206 150.841949 
z
" clip-path="url(#p2b41b2a254)" style="fill: #2eb37c; opacity: 0.82; stroke: #16324f; stroke-width: 0.8; stroke-linejoin: miter"/>
   </g>
   <g id="patch_54">
    <path d="M 614.313853 139.63342 
C 618.615333 139.63342 622.741215 137.924424 625.782821 134.882818 
C 628.824427 131.841212 630.533423 127.71533 630.533423 123.413849 
C 630.533423 119.112369 628.824427 114.986487 625.782821 111.944881 
C 622.741215 108.903275 618.615333 107.194278 614.313853 107.194278 
C 610.012372 107.194278 605.88649 108.903275 602.844884 111.944881 
C 599.803278 114.986487 598.094282 119.112369 598.094282 123.413849 
C 598.094282 127.71533 599.803278 131.841212 602.844884 134.882818 
C 605.88649 137.924424 610.012372 139.63342 614.313853 139.63342 
z
" clip-path="url(#p2b41b2a254)" style="fill: #287c8e; opacity: 0.82; stroke: #16324f; stroke-width: 0.8; stroke-linejoin: miter"/>
   </g>
   <g id="patch_55">
    <path d="M 396.964105 104.336647 
C 403.940592 104.336647 410.63228 101.564859 415.565401 96.631738 
C 420.498523 91.698616 423.27031 85.006929 423.27031 78.030441 
C 423.27031 71.053954 420.498523 64.362266 415.565401 59.429145 
C 410.63228 54.496023 403.940592 51.724236 396.964105 51.724236 
C 389.987617 51.724236 383.29593 54.496023 378.362808 59.429145 
C 373.429687 64.362266 370.657899 71.053954 370.657899 78.030441 
C 370.657899 85.006929 373.429687 91.698616 378.362808 96.631738 
C 383.29593 101.564859 389.987617 104.336647 396.964105 104.336647 
z
" clip-path="url(#p2b41b2a254)" style="fill: #38b977; opacity: 0.82; stroke: #16324f; stroke-width: 0.8; stroke-linejoin: miter"/>
   </g>
   <g id="patch_56">
    <path d="M 438.182005 117.013789 
C 443.313471 117.013789 448.235456 114.975036 451.86395 111.346541 
C 455.492445 107.718047 457.531198 102.796062 457.531198 97.664596 
C 457.531198 92.53313 455.492445 87.611145 451.86395 83.982651 
C 448.235456 80.354157 443.313471 78.315404 438.182005 78.315404 
C 433.050539 78.315404 428.128554 80.354157 424.50006 83.982651 
C 420.871566 87.611145 418.832813 92.53313 418.832813 97.664596 
C 418.832813 102.796062 420.871566 107.718047 424.50006 111.346541 
C 428.128554 114.975036 433.050539 117.013789 438.182005 117.013789 
z
" clip-path="url(#p2b41b2a254)" style="fill: #21908d; opacity: 0.82; stroke: #16324f; stroke-width: 0.8; stroke-linejoin: miter"/>
   </g>
   <g id="patch_57">
    <path d="M 485.939411 113.248555 
C 494.097631 113.248555 501.92281 110.00726 507.691543 104.238527 
C 513.460276 98.469794 516.701571 90.644615 516.701571 82.486395 
C 516.701571 74.328175 513.460276 66.502996 507.691543 60.734264 
C 501.92281 54.965531 494.097631 51.724236 485.939411 51.724236 
C 477.781191 51.724236 469.956012 54.965531 464.187279 60.734264 
C 458.418547 66.502996 455.177251 74.328175 455.177251 82.486395 
C 455.177251 90.644615 458.418547 98.469794 464.187279 104.238527 
C 469.956012 110.00726 477.781191 113.248555 485.939411 113.248555 
z
" clip-path="url(#p2b41b2a254)" style="fill: #75d054; opacity: 0.82; stroke: #16324f; stroke-width: 0.8; stroke-linejoin: miter"/>
   </g>
   <g id="patch_58">
    <path d="M 544.984944 108.390851 
C 552.499025 108.390851 559.70636 105.405475 565.019618 100.092217 
C 570.332875 94.778959 573.318251 87.571624 573.318251 80.057543 
C 573.318251 72.543462 570.332875 65.336127 565.019618 60.022869 
C 559.70636 54.709612 552.499025 51.724236 544.984944 51.724236 
C 537.470863 51.724236 530.263527 54.709612 524.95027 60.022869 
C 519.637012 65.336127 516.651636 72.543462 516.651636 80.057543 
C 516.651636 87.571624 519.637012 94.778959 524.95027 100.092217 
C 530.263527 105.405475 537.470863 108.390851 544.984944 108.390851 
z
" clip-path="url(#p2b41b2a254)" style="fill: #52c569; opacity: 0.82; stroke: #16324f; stroke-width: 0.8; stroke-linejoin: miter"/>
   </g>
   <g id="patch_59">
    <path d="M 601.925506 108.94007 
C 609.512415 108.94007 616.789604 105.925759 622.154358 100.561005 
C 627.519113 95.196251 630.533423 87.919061 630.533423 80.332153 
C 630.533423 72.745245 627.519113 65.468055 622.154358 60.103301 
C 616.789604 54.738546 609.512415 51.724236 601.925506 51.724236 
C 594.338598 51.724236 587.061408 54.738546 581.696654 60.103301 
C 576.3319 65.468055 573.317589 72.745245 573.317589 80.332153 
C 573.317589 87.919061 576.3319 95.196251 581.696654 100.561005 
C 587.061408 105.925759 594.338598 108.94007 601.925506 108.94007 
z
" clip-path="url(#p2b41b2a254)" style="fill: #54c568; opacity: 0.82; stroke: #16324f; stroke-width: 0.8; stroke-linejoin: miter"/>
   </g>
   <g id="matplotlib.axis_3">
    <g id="xtick_7">
     <g id="line2d_25">
      <path d="M 370.657899 311.59976 
L 370.657899 51.724236 
" clip-path="url(#p2b41b2a254)" style="fill: none; stroke: #b0b0b0; stroke-opacity: 0.12; stroke-width: 0.8; stroke-linecap: square"/>
     </g>
     <g id="line2d_26">
      <g>
       <use xlink:href="#m865562ee36" x="370.657899" y="311.59976" style="stroke: #000000; stroke-width: 0.8"/>
      </g>
     </g>
     <g id="text_26">
      <!-- 0.0 -->
      <g transform="translate(362.706337 326.197416) scale(0.1 -0.1)">
       <use xlink:href="#DejaVuSans-13"/>
       <use xlink:href="#DejaVuSans-11" transform="translate(63.625 0)"/>
       <use xlink:href="#DejaVuSans-13" transform="translate(95.40625 0)"/>
      </g>
     </g>
    </g>
    <g id="xtick_8">
     <g id="line2d_27">
      <path d="M 422.633004 311.59976 
L 422.633004 51.724236 
" clip-path="url(#p2b41b2a254)" style="fill: none; stroke: #b0b0b0; stroke-opacity: 0.12; stroke-width: 0.8; stroke-linecap: square"/>
     </g>
     <g id="line2d_28">
      <g>
       <use xlink:href="#m865562ee36" x="422.633004" y="311.59976" style="stroke: #000000; stroke-width: 0.8"/>
      </g>
     </g>
     <g id="text_27">
      <!-- 0.2 -->
      <g transform="translate(414.681441 326.197416) scale(0.1 -0.1)">
       <use xlink:href="#DejaVuSans-13"/>
       <use xlink:href="#DejaVuSans-11" transform="translate(63.625 0)"/>
       <use xlink:href="#DejaVuSans-15" transform="translate(95.40625 0)"/>
      </g>
     </g>
    </g>
    <g id="xtick_9">
     <g id="line2d_29">
      <path d="M 474.608109 311.59976 
L 474.608109 51.724236 
" clip-path="url(#p2b41b2a254)" style="fill: none; stroke: #b0b0b0; stroke-opacity: 0.12; stroke-width: 0.8; stroke-linecap: square"/>
     </g>
     <g id="line2d_30">
      <g>
       <use xlink:href="#m865562ee36" x="474.608109" y="311.59976" style="stroke: #000000; stroke-width: 0.8"/>
      </g>
     </g>
     <g id="text_28">
      <!-- 0.4 -->
      <g transform="translate(466.656546 326.197416) scale(0.1 -0.1)">
       <use xlink:href="#DejaVuSans-13"/>
       <use xlink:href="#DejaVuSans-11" transform="translate(63.625 0)"/>
       <use xlink:href="#DejaVuSans-17" transform="translate(95.40625 0)"/>
      </g>
     </g>
    </g>
    <g id="xtick_10">
     <g id="line2d_31">
      <path d="M 526.583214 311.59976 
L 526.583214 51.724236 
" clip-path="url(#p2b41b2a254)" style="fill: none; stroke: #b0b0b0; stroke-opacity: 0.12; stroke-width: 0.8; stroke-linecap: square"/>
     </g>
     <g id="line2d_32">
      <g>
       <use xlink:href="#m865562ee36" x="526.583214" y="311.59976" style="stroke: #000000; stroke-width: 0.8"/>
      </g>
     </g>
     <g id="text_29">
      <!-- 0.6 -->
      <g transform="translate(518.631651 326.197416) scale(0.1 -0.1)">
       <use xlink:href="#DejaVuSans-13"/>
       <use xlink:href="#DejaVuSans-11" transform="translate(63.625 0)"/>
       <use xlink:href="#DejaVuSans-19" transform="translate(95.40625 0)"/>
      </g>
     </g>
    </g>
    <g id="xtick_11">
     <g id="line2d_33">
      <path d="M 578.558319 311.59976 
L 578.558319 51.724236 
" clip-path="url(#p2b41b2a254)" style="fill: none; stroke: #b0b0b0; stroke-opacity: 0.12; stroke-width: 0.8; stroke-linecap: square"/>
     </g>
     <g id="line2d_34">
      <g>
       <use xlink:href="#m865562ee36" x="578.558319" y="311.59976" style="stroke: #000000; stroke-width: 0.8"/>
      </g>
     </g>
     <g id="text_30">
      <!-- 0.8 -->
      <g transform="translate(570.606756 326.197416) scale(0.1 -0.1)">
       <use xlink:href="#DejaVuSans-13"/>
       <use xlink:href="#DejaVuSans-11" transform="translate(63.625 0)"/>
       <use xlink:href="#DejaVuSans-1b" transform="translate(95.40625 0)"/>
      </g>
     </g>
    </g>
    <g id="xtick_12">
     <g id="line2d_35">
      <path d="M 630.533423 311.59976 
L 630.533423 51.724236 
" clip-path="url(#p2b41b2a254)" style="fill: none; stroke: #b0b0b0; stroke-opacity: 0.12; stroke-width: 0.8; stroke-linecap: square"/>
     </g>
     <g id="line2d_36">
      <g>
       <use xlink:href="#m865562ee36" x="630.533423" y="311.59976" style="stroke: #000000; stroke-width: 0.8"/>
      </g>
     </g>
     <g id="text_31">
      <!-- 1.0 -->
      <g transform="translate(622.581861 326.197416) scale(0.1 -0.1)">
       <use xlink:href="#DejaVuSans-14"/>
       <use xlink:href="#DejaVuSans-11" transform="translate(63.625 0)"/>
       <use xlink:href="#DejaVuSans-13" transform="translate(95.40625 0)"/>
      </g>
     </g>
    </g>
    <g id="text_32">
     <!-- x -->
     <g transform="translate(497.636286 340.197416) scale(0.1 -0.1)">
      <use xlink:href="#DejaVuSans-5b"/>
     </g>
    </g>
   </g>
   <g id="matplotlib.axis_4">
    <g id="ytick_7">
     <g id="line2d_37">
      <path d="M 370.657899 311.59976 
L 630.533423 311.59976 
" clip-path="url(#p2b41b2a254)" style="fill: none; stroke: #b0b0b0; stroke-opacity: 0.12; stroke-width: 0.8; stroke-linecap: square"/>
     </g>
     <g id="line2d_38">
      <g>
       <use xlink:href="#mb7508c1bee" x="370.657899" y="311.59976" style="stroke: #000000; stroke-width: 0.8"/>
      </g>
     </g>
     <g id="text_33">
      <!-- 0.0 -->
      <g transform="translate(347.754774 315.398588) scale(0.1 -0.1)">
       <use xlink:href="#DejaVuSans-13"/>
       <use xlink:href="#DejaVuSans-11" transform="translate(63.625 0)"/>
       <use xlink:href="#DejaVuSans-13" transform="translate(95.40625 0)"/>
      </g>
     </g>
    </g>
    <g id="ytick_8">
     <g id="line2d_39">
      <path d="M 370.657899 259.624655 
L 630.533423 259.624655 
" clip-path="url(#p2b41b2a254)" style="fill: none; stroke: #b0b0b0; stroke-opacity: 0.12; stroke-width: 0.8; stroke-linecap: square"/>
     </g>
     <g id="line2d_40">
      <g>
       <use xlink:href="#mb7508c1bee" x="370.657899" y="259.624655" style="stroke: #000000; stroke-width: 0.8"/>
      </g>
     </g>
     <g id="text_34">
      <!-- 0.2 -->
      <g transform="translate(347.754774 263.423483) scale(0.1 -0.1)">
       <use xlink:href="#DejaVuSans-13"/>
       <use xlink:href="#DejaVuSans-11" transform="translate(63.625 0)"/>
       <use xlink:href="#DejaVuSans-15" transform="translate(95.40625 0)"/>
      </g>
     </g>
    </g>
    <g id="ytick_9">
     <g id="line2d_41">
      <path d="M 370.657899 207.64955 
L 630.533423 207.64955 
" clip-path="url(#p2b41b2a254)" style="fill: none; stroke: #b0b0b0; stroke-opacity: 0.12; stroke-width: 0.8; stroke-linecap: square"/>
     </g>
     <g id="line2d_42">
      <g>
       <use xlink:href="#mb7508c1bee" x="370.657899" y="207.64955" style="stroke: #000000; stroke-width: 0.8"/>
      </g>
     </g>
     <g id="text_35">
      <!-- 0.4 -->
      <g transform="translate(347.754774 211.448378) scale(0.1 -0.1)">
       <use xlink:href="#DejaVuSans-13"/>
       <use xlink:href="#DejaVuSans-11" transform="translate(63.625 0)"/>
       <use xlink:href="#DejaVuSans-17" transform="translate(95.40625 0)"/>
      </g>
     </g>
    </g>
    <g id="ytick_10">
     <g id="line2d_43">
      <path d="M 370.657899 155.674445 
L 630.533423 155.674445 
" clip-path="url(#p2b41b2a254)" style="fill: none; stroke: #b0b0b0; stroke-opacity: 0.12; stroke-width: 0.8; stroke-linecap: square"/>
     </g>
     <g id="line2d_44">
      <g>
       <use xlink:href="#mb7508c1bee" x="370.657899" y="155.674445" style="stroke: #000000; stroke-width: 0.8"/>
      </g>
     </g>
     <g id="text_36">
      <!-- 0.6 -->
      <g transform="translate(347.754774 159.473273) scale(0.1 -0.1)">
       <use xlink:href="#DejaVuSans-13"/>
       <use xlink:href="#DejaVuSans-11" transform="translate(63.625 0)"/>
       <use xlink:href="#DejaVuSans-19" transform="translate(95.40625 0)"/>
      </g>
     </g>
    </g>
    <g id="ytick_11">
     <g id="line2d_45">
      <path d="M 370.657899 103.69934 
L 630.533423 103.69934 
" clip-path="url(#p2b41b2a254)" style="fill: none; stroke: #b0b0b0; stroke-opacity: 0.12; stroke-width: 0.8; stroke-linecap: square"/>
     </g>
     <g id="line2d_46">
      <g>
       <use xlink:href="#mb7508c1bee" x="370.657899" y="103.69934" style="stroke: #000000; stroke-width: 0.8"/>
      </g>
     </g>
     <g id="text_37">
      <!-- 0.8 -->
      <g transform="translate(347.754774 107.498169) scale(0.1 -0.1)">
       <use xlink:href="#DejaVuSans-13"/>
       <use xlink:href="#DejaVuSans-11" transform="translate(63.625 0)"/>
       <use xlink:href="#DejaVuSans-1b" transform="translate(95.40625 0)"/>
      </g>
     </g>
    </g>
    <g id="ytick_12">
     <g id="line2d_47">
      <path d="M 370.657899 51.724236 
L 630.533423 51.724236 
" clip-path="url(#p2b41b2a254)" style="fill: none; stroke: #b0b0b0; stroke-opacity: 0.12; stroke-width: 0.8; stroke-linecap: square"/>
     </g>
     <g id="line2d_48">
      <g>
       <use xlink:href="#mb7508c1bee" x="370.657899" y="51.724236" style="stroke: #000000; stroke-width: 0.8"/>
      </g>
     </g>
     <g id="text_38">
      <!-- 1.0 -->
      <g transform="translate(347.754774 55.523064) scale(0.1 -0.1)">
       <use xlink:href="#DejaVuSans-14"/>
       <use xlink:href="#DejaVuSans-11" transform="translate(63.625 0)"/>
       <use xlink:href="#DejaVuSans-13" transform="translate(95.40625 0)"/>
      </g>
     </g>
    </g>
    <g id="text_39">
     <!-- y -->
     <g transform="translate(341.35243 184.621373) rotate(-90) scale(0.1 -0.1)">
      <use xlink:href="#DejaVuSans-5c"/>
     </g>
    </g>
   </g>
   <g id="patch_60">
    <path d="M 370.657899 311.59976 
L 370.657899 51.724236 
" style="fill: none; stroke: #000000; stroke-width: 0.8; stroke-linejoin: miter; stroke-linecap: square"/>
   </g>
   <g id="patch_61">
    <path d="M 630.533423 311.59976 
L 630.533423 51.724236 
" style="fill: none; stroke: #000000; stroke-width: 0.8; stroke-linejoin: miter; stroke-linecap: square"/>
   </g>
   <g id="patch_62">
    <path d="M 370.657899 311.59976 
L 630.533423 311.59976 
" style="fill: none; stroke: #000000; stroke-width: 0.8; stroke-linejoin: miter; stroke-linecap: square"/>
   </g>
   <g id="patch_63">
    <path d="M 370.657899 51.724236 
L 630.533423 51.724236 
" style="fill: none; stroke: #000000; stroke-width: 0.8; stroke-linejoin: miter; stroke-linecap: square"/>
   </g>
   <g id="text_40">
    <!-- 1 -->
    <g style="fill: #ffffff" transform="translate(389.014171 292.893332) scale(0.06 -0.06)">
     <use xlink:href="#DejaVuSans-14"/>
    </g>
   </g>
   <g id="text_41">
    <!-- 2 -->
    <g style="fill: #ffffff" transform="translate(433.098143 289.183588) scale(0.06 -0.06)">
     <use xlink:href="#DejaVuSans-15"/>
    </g>
   </g>
   <g id="text_42">
    <!-- 3 -->
    <g style="fill: #ffffff" transform="translate(473.972685 295.736617) scale(0.06 -0.06)">
     <use xlink:href="#DejaVuSans-16"/>
    </g>
   </g>
   <g id="text_43">
    <!-- 4 -->
    <g style="fill: #ffffff" transform="translate(518.606126 284.571307) scale(0.06 -0.06)">
     <use xlink:href="#DejaVuSans-17"/>
    </g>
   </g>
   <g id="text_44">
    <!-- 5 -->
    <g style="fill: #ffffff" transform="translate(560.280356 297.970169) scale(0.06 -0.06)">
     <use xlink:href="#DejaVuSans-18"/>
    </g>
   </g>
   <g id="text_45">
    <!-- 6 -->
    <g style="fill: #ffffff" transform="translate(601.141815 285.675496) scale(0.06 -0.06)">
     <use xlink:href="#DejaVuSans-19"/>
    </g>
   </g>
   <g id="text_46">
    <!-- 7 -->
    <g style="fill: #ffffff" transform="translate(402.159896 240.852213) scale(0.06 -0.06)">
     <use xlink:href="#DejaVuSans-1a"/>
    </g>
   </g>
   <g id="text_47">
    <!-- 8 -->
    <g style="fill: #ffffff" transform="translate(470.233927 243.725202) scale(0.06 -0.06)">
     <use xlink:href="#DejaVuSans-1b"/>
    </g>
   </g>
   <g id="text_48">
    <!-- 9 -->
    <g style="fill: #ffffff" transform="translate(531.380799 229.353493) scale(0.06 -0.06)">
     <use xlink:href="#DejaVuSans-1c"/>
    </g>
   </g>
   <g id="text_49">
    <!-- 10 -->
    <g style="fill: #ffffff" transform="translate(558.85226 264.819781) scale(0.06 -0.06)">
     <use xlink:href="#DejaVuSans-14"/>
     <use xlink:href="#DejaVuSans-13" transform="translate(63.625 0)"/>
    </g>
   </g>
   <g id="text_50">
    <!-- 11 -->
    <g style="fill: #ffffff" transform="translate(592.020693 223.917125) scale(0.06 -0.06)">
     <use xlink:href="#DejaVuSans-14"/>
     <use xlink:href="#DejaVuSans-14" transform="translate(63.625 0)"/>
    </g>
   </g>
   <g id="text_51">
    <!-- 12 -->
    <g style="fill: #ffffff" transform="translate(386.580853 189.489062) scale(0.06 -0.06)">
     <use xlink:href="#DejaVuSans-14"/>
     <use xlink:href="#DejaVuSans-15" transform="translate(63.625 0)"/>
    </g>
   </g>
   <g id="text_52">
    <!-- 13 -->
    <g style="fill: #ffffff" transform="translate(435.311014 189.231409) scale(0.06 -0.06)">
     <use xlink:href="#DejaVuSans-14"/>
     <use xlink:href="#DejaVuSans-16" transform="translate(63.625 0)"/>
    </g>
   </g>
   <g id="text_53">
    <!-- 14 -->
    <g style="fill: #ffffff" transform="translate(493.33744 184.900719) scale(0.06 -0.06)">
     <use xlink:href="#DejaVuSans-14"/>
     <use xlink:href="#DejaVuSans-17" transform="translate(63.625 0)"/>
    </g>
   </g>
   <g id="text_54">
    <!-- 15 -->
    <g style="fill: #ffffff" transform="translate(550.14787 177.049658) scale(0.06 -0.06)">
     <use xlink:href="#DejaVuSans-14"/>
     <use xlink:href="#DejaVuSans-18" transform="translate(63.625 0)"/>
    </g>
   </g>
   <g id="text_55">
    <!-- 16 -->
    <g style="fill: #ffffff" transform="translate(601.8325 165.151962) scale(0.06 -0.06)">
     <use xlink:href="#DejaVuSans-14"/>
     <use xlink:href="#DejaVuSans-19" transform="translate(63.625 0)"/>
    </g>
   </g>
   <g id="text_56">
    <!-- 17 -->
    <g style="fill: #ffffff" transform="translate(399.796209 138.476803) scale(0.06 -0.06)">
     <use xlink:href="#DejaVuSans-14"/>
     <use xlink:href="#DejaVuSans-1a" transform="translate(63.625 0)"/>
    </g>
   </g>
   <g id="text_57">
    <!-- 18 -->
    <g style="fill: #ffffff" transform="translate(460.48918 138.397556) scale(0.06 -0.06)">
     <use xlink:href="#DejaVuSans-14"/>
     <use xlink:href="#DejaVuSans-1b" transform="translate(63.625 0)"/>
    </g>
   </g>
   <g id="text_58">
    <!-- 19 -->
    <g style="fill: #ffffff" transform="translate(516.050621 132.225571) scale(0.06 -0.06)">
     <use xlink:href="#DejaVuSans-14"/>
     <use xlink:href="#DejaVuSans-1c" transform="translate(63.625 0)"/>
    </g>
   </g>
   <g id="text_59">
    <!-- 20 -->
    <g style="fill: #ffffff" transform="translate(569.159706 127.222286) scale(0.06 -0.06)">
     <use xlink:href="#DejaVuSans-15"/>
     <use xlink:href="#DejaVuSans-13" transform="translate(63.625 0)"/>
    </g>
   </g>
   <g id="text_60">
    <!-- 21 -->
    <g style="fill: #ffffff" transform="translate(610.496353 124.972443) scale(0.06 -0.06)">
     <use xlink:href="#DejaVuSans-15"/>
     <use xlink:href="#DejaVuSans-14" transform="translate(63.625 0)"/>
    </g>
   </g>
   <g id="text_61">
    <!-- 22 -->
    <g style="fill: #ffffff" transform="translate(393.146605 79.589035) scale(0.06 -0.06)">
     <use xlink:href="#DejaVuSans-15"/>
     <use xlink:href="#DejaVuSans-15" transform="translate(63.625 0)"/>
    </g>
   </g>
   <g id="text_62">
    <!-- 23 -->
    <g style="fill: #ffffff" transform="translate(434.364505 99.22319) scale(0.06 -0.06)">
     <use xlink:href="#DejaVuSans-15"/>
     <use xlink:href="#DejaVuSans-16" transform="translate(63.625 0)"/>
    </g>
   </g>
   <g id="text_63">
    <!-- 24 -->
    <g style="fill: #ffffff" transform="translate(482.121911 84.044989) scale(0.06 -0.06)">
     <use xlink:href="#DejaVuSans-15"/>
     <use xlink:href="#DejaVuSans-17" transform="translate(63.625 0)"/>
    </g>
   </g>
   <g id="text_64">
    <!-- 25 -->
    <g style="fill: #ffffff" transform="translate(541.167444 81.616137) scale(0.06 -0.06)">
     <use xlink:href="#DejaVuSans-15"/>
     <use xlink:href="#DejaVuSans-18" transform="translate(63.625 0)"/>
    </g>
   </g>
   <g id="text_65">
    <!-- 26 -->
    <g style="fill: #ffffff" transform="translate(598.108006 81.890747) scale(0.06 -0.06)">
     <use xlink:href="#DejaVuSans-15"/>
     <use xlink:href="#DejaVuSans-19" transform="translate(63.625 0)"/>
    </g>
   </g>
   <g id="text_66">
    <!-- Frozen generated solver -->
    <g transform="translate(427.953474 31.320954) scale(0.12 -0.12)">
     <defs>
      <path id="DejaVuSans-29" d="M 628 4666 
L 3309 4666 
L 3309 4134 
L 1259 4134 
L 1259 2759 
L 3109 2759 
L 3109 2228 
L 1259 2228 
L 1259 0 
L 628 0 
L 628 4666 
z
" transform="scale(0.015625)"/>
      <path id="DejaVuSans-5d" d="M 353 3500 
L 3084 3500 
L 3084 2975 
L 922 459 
L 3084 459 
L 3084 0 
L 275 0 
L 275 525 
L 2438 3041 
L 353 3041 
L 353 3500 
z
" transform="scale(0.015625)"/>
      <path id="DejaVuSans-51" d="M 3513 2113 
L 3513 0 
L 2938 0 
L 2938 2094 
Q 2938 2591 2744 2837 
Q 2550 3084 2163 3084 
Q 1697 3084 1428 2787 
Q 1159 2491 1159 1978 
L 1159 0 
L 581 0 
L 581 3500 
L 1159 3500 
L 1159 2956 
Q 1366 3272 1645 3428 
Q 1925 3584 2291 3584 
Q 2894 3584 3203 3211 
Q 3513 2838 3513 2113 
z
" transform="scale(0.015625)"/>
      <path id="DejaVuSans-4a" d="M 2906 1791 
Q 2906 2416 2648 2759 
Q 2391 3103 1925 3103 
Q 1463 3103 1205 2759 
Q 947 2416 947 1791 
Q 947 1169 1205 825 
Q 1463 481 1925 481 
Q 2391 481 2648 825 
Q 2906 1169 2906 1791 
z
M 3481 434 
Q 3481 -459 3084 -895 
Q 2688 -1331 1869 -1331 
Q 1566 -1331 1297 -1286 
Q 1028 -1241 775 -1147 
L 775 -588 
Q 1028 -725 1275 -790 
Q 1522 -856 1778 -856 
Q 2344 -856 2625 -561 
Q 2906 -266 2906 331 
L 2906 616 
Q 2728 306 2450 153 
Q 2172 0 1784 0 
Q 1141 0 747 490 
Q 353 981 353 1791 
Q 353 2603 747 3093 
Q 1141 3584 1784 3584 
Q 2172 3584 2450 3431 
Q 2728 3278 2906 2969 
L 2906 3500 
L 3481 3500 
L 3481 434 
z
" transform="scale(0.015625)"/>
      <path id="DejaVuSans-57" d="M 1172 4494 
L 1172 3500 
L 2356 3500 
L 2356 3053 
L 1172 3053 
L 1172 1153 
Q 1172 725 1289 603 
Q 1406 481 1766 481 
L 2356 481 
L 2356 0 
L 1766 0 
Q 1100 0 847 248 
Q 594 497 594 1153 
L 594 3053 
L 172 3053 
L 172 3500 
L 594 3500 
L 594 4494 
L 1172 4494 
z
" transform="scale(0.015625)"/>
      <path id="DejaVuSans-4f" d="M 603 4863 
L 1178 4863 
L 1178 0 
L 603 0 
L 603 4863 
z
" transform="scale(0.015625)"/>
     </defs>
     <use xlink:href="#DejaVuSans-29"/>
     <use xlink:href="#DejaVuSans-55" transform="translate(50.234375 0)"/>
     <use xlink:href="#DejaVuSans-52" transform="translate(89.140625 0)"/>
     <use xlink:href="#DejaVuSans-5d" transform="translate(150.328125 0)"/>
     <use xlink:href="#DejaVuSans-48" transform="translate(202.8125 0)"/>
     <use xlink:href="#DejaVuSans-51" transform="translate(264.34375 0)"/>
     <use xlink:href="#DejaVuSans-3" transform="translate(327.71875 0)"/>
     <use xlink:href="#DejaVuSans-4a" transform="translate(359.5 0)"/>
     <use xlink:href="#DejaVuSans-48" transform="translate(422.984375 0)"/>
     <use xlink:href="#DejaVuSans-51" transform="translate(484.515625 0)"/>
     <use xlink:href="#DejaVuSans-48" transform="translate(547.890625 0)"/>
     <use xlink:href="#DejaVuSans-55" transform="translate(609.421875 0)"/>
     <use xlink:href="#DejaVuSans-44" transform="translate(650.53125 0)"/>
     <use xlink:href="#DejaVuSans-57" transform="translate(711.8125 0)"/>
     <use xlink:href="#DejaVuSans-48" transform="translate(751.015625 0)"/>
     <use xlink:href="#DejaVuSans-47" transform="translate(812.546875 0)"/>
     <use xlink:href="#DejaVuSans-3" transform="translate(876.03125 0)"/>
     <use xlink:href="#DejaVuSans-56" transform="translate(907.8125 0)"/>
     <use xlink:href="#DejaVuSans-52" transform="translate(959.90625 0)"/>
     <use xlink:href="#DejaVuSans-4f" transform="translate(1021.09375 0)"/>
     <use xlink:href="#DejaVuSans-59" transform="translate(1048.875 0)"/>
     <use xlink:href="#DejaVuSans-48" transform="translate(1108.0625 0)"/>
     <use xlink:href="#DejaVuSans-55" transform="translate(1169.59375 0)"/>
    </g>
    <!-- Radius sum 2.602725 -->
    <g transform="translate(435.262224 45.724236) scale(0.12 -0.12)">
     <use xlink:href="#DejaVuSans-35"/>
     <use xlink:href="#DejaVuSans-44" transform="translate(67.28125 0)"/>
     <use xlink:href="#DejaVuSans-47" transform="translate(128.5625 0)"/>
     <use xlink:href="#DejaVuSans-4c" transform="translate(192.046875 0)"/>
     <use xlink:href="#DejaVuSans-58" transform="translate(219.828125 0)"/>
     <use xlink:href="#DejaVuSans-56" transform="translate(283.203125 0)"/>
     <use xlink:href="#DejaVuSans-3" transform="translate(335.296875 0)"/>
     <use xlink:href="#DejaVuSans-56" transform="translate(367.078125 0)"/>
     <use xlink:href="#DejaVuSans-58" transform="translate(419.171875 0)"/>
     <use xlink:href="#DejaVuSans-50" transform="translate(482.546875 0)"/>
     <use xlink:href="#DejaVuSans-3" transform="translate(579.953125 0)"/>
     <use xlink:href="#DejaVuSans-15" transform="translate(611.734375 0)"/>
     <use xlink:href="#DejaVuSans-11" transform="translate(675.359375 0)"/>
     <use xlink:href="#DejaVuSans-19" transform="translate(707.140625 0)"/>
     <use xlink:href="#DejaVuSans-13" transform="translate(770.765625 0)"/>
     <use xlink:href="#DejaVuSans-15" transform="translate(834.390625 0)"/>
     <use xlink:href="#DejaVuSans-1a" transform="translate(898.015625 0)"/>
     <use xlink:href="#DejaVuSans-15" transform="translate(961.640625 0)"/>
     <use xlink:href="#DejaVuSans-18" transform="translate(1025.265625 0)"/>
    </g>
   </g>
  </g>
  <g id="text_67">
   <!-- n = 26 · First fresh audit case · Both pass strict geometry checks -->
   <g transform="translate(129.425625 12.118365) scale(0.12 -0.12)">
    <defs>
     <path id="DejaVuSans-20" d="M 678 2906 
L 4684 2906 
L 4684 2381 
L 678 2381 
L 678 2906 
z
M 678 1631 
L 4684 1631 
L 4684 1100 
L 678 1100 
L 678 1631 
z
" transform="scale(0.015625)"/>
     <path id="DejaVuSans-79" d="M 684 2619 
L 1344 2619 
L 1344 1825 
L 684 1825 
L 684 2619 
z
" transform="scale(0.015625)"/>
     <path id="DejaVuSans-49" d="M 2375 4863 
L 2375 4384 
L 1825 4384 
Q 1516 4384 1395 4259 
Q 1275 4134 1275 3809 
L 1275 3500 
L 2222 3500 
L 2222 3053 
L 1275 3053 
L 1275 0 
L 697 0 
L 697 3053 
L 147 3053 
L 147 3500 
L 697 3500 
L 697 3744 
Q 697 4328 969 4595 
Q 1241 4863 1831 4863 
L 2375 4863 
z
" transform="scale(0.015625)"/>
     <path id="DejaVuSans-4b" d="M 3513 2113 
L 3513 0 
L 2938 0 
L 2938 2094 
Q 2938 2591 2744 2837 
Q 2550 3084 2163 3084 
Q 1697 3084 1428 2787 
Q 1159 2491 1159 1978 
L 1159 0 
L 581 0 
L 581 4863 
L 1159 4863 
L 1159 2956 
Q 1366 3272 1645 3428 
Q 1925 3584 2291 3584 
Q 2894 3584 3203 3211 
Q 3513 2838 3513 2113 
z
" transform="scale(0.015625)"/>
     <path id="DejaVuSans-46" d="M 3122 3366 
L 3122 2828 
Q 2878 2963 2633 3030 
Q 2388 3097 2138 3097 
Q 1578 3097 1268 2742 
Q 959 2388 959 1747 
Q 959 1106 1268 751 
Q 1578 397 2138 397 
Q 2388 397 2633 464 
Q 2878 531 3122 666 
L 3122 134 
Q 2881 22 2623 -34 
Q 2366 -91 2075 -91 
Q 1284 -91 818 406 
Q 353 903 353 1747 
Q 353 2603 823 3093 
Q 1294 3584 2113 3584 
Q 2378 3584 2631 3529 
Q 2884 3475 3122 3366 
z
" transform="scale(0.015625)"/>
     <path id="DejaVuSans-25" d="M 1259 2228 
L 1259 519 
L 2272 519 
Q 2781 519 3026 730 
Q 3272 941 3272 1375 
Q 3272 1813 3026 2020 
Q 2781 2228 2272 2228 
L 1259 2228 
z
M 1259 4147 
L 1259 2741 
L 2194 2741 
Q 2656 2741 2882 2914 
Q 3109 3088 3109 3444 
Q 3109 3797 2882 3972 
Q 2656 4147 2194 4147 
L 1259 4147 
z
M 628 4666 
L 2241 4666 
Q 2963 4666 3353 4366 
Q 3744 4066 3744 3513 
Q 3744 3084 3544 2831 
Q 3344 2578 2956 2516 
Q 3422 2416 3680 2098 
Q 3938 1781 3938 1306 
Q 3938 681 3513 340 
Q 3088 0 2303 0 
L 628 0 
L 628 4666 
z
" transform="scale(0.015625)"/>
     <path id="DejaVuSans-53" d="M 1159 525 
L 1159 -1331 
L 581 -1331 
L 581 3500 
L 1159 3500 
L 1159 2969 
Q 1341 3281 1617 3432 
Q 1894 3584 2278 3584 
Q 2916 3584 3314 3078 
Q 3713 2572 3713 1747 
Q 3713 922 3314 415 
Q 2916 -91 2278 -91 
Q 1894 -91 1617 61 
Q 1341 213 1159 525 
z
M 3116 1747 
Q 3116 2381 2855 2742 
Q 2594 3103 2138 3103 
Q 1681 3103 1420 2742 
Q 1159 2381 1159 1747 
Q 1159 1113 1420 752 
Q 1681 391 2138 391 
Q 2594 391 2855 752 
Q 3116 1113 3116 1747 
z
" transform="scale(0.015625)"/>
     <path id="DejaVuSans-4e" d="M 581 4863 
L 1159 4863 
L 1159 1991 
L 2875 3500 
L 3609 3500 
L 1753 1863 
L 3688 0 
L 2938 0 
L 1159 1709 
L 1159 0 
L 581 0 
L 581 4863 
z
" transform="scale(0.015625)"/>
    </defs>
    <use xlink:href="#DejaVuSans-51"/>
    <use xlink:href="#DejaVuSans-3" transform="translate(63.375 0)"/>
    <use xlink:href="#DejaVuSans-20" transform="translate(95.15625 0)"/>
    <use xlink:href="#DejaVuSans-3" transform="translate(178.953125 0)"/>
    <use xlink:href="#DejaVuSans-15" transform="translate(210.734375 0)"/>
    <use xlink:href="#DejaVuSans-19" transform="translate(274.359375 0)"/>
    <use xlink:href="#DejaVuSans-3" transform="translate(337.984375 0)"/>
    <use xlink:href="#DejaVuSans-79" transform="translate(369.765625 0)"/>
    <use xlink:href="#DejaVuSans-3" transform="translate(401.546875 0)"/>
    <use xlink:href="#DejaVuSans-29" transform="translate(433.328125 0)"/>
    <use xlink:href="#DejaVuSans-4c" transform="translate(483.5625 0)"/>
    <use xlink:href="#DejaVuSans-55" transform="translate(511.34375 0)"/>
    <use xlink:href="#DejaVuSans-56" transform="translate(552.453125 0)"/>
    <use xlink:href="#DejaVuSans-57" transform="translate(604.546875 0)"/>
    <use xlink:href="#DejaVuSans-3" transform="translate(643.75 0)"/>
    <use xlink:href="#DejaVuSans-49" transform="translate(675.53125 0)"/>
    <use xlink:href="#DejaVuSans-55" transform="translate(710.734375 0)"/>
    <use xlink:href="#DejaVuSans-48" transform="translate(749.640625 0)"/>
    <use xlink:href="#DejaVuSans-56" transform="translate(811.171875 0)"/>
    <use xlink:href="#DejaVuSans-4b" transform="translate(863.265625 0)"/>
    <use xlink:href="#DejaVuSans-3" transform="translate(926.640625 0)"/>
    <use xlink:href="#DejaVuSans-44" transform="translate(958.421875 0)"/>
    <use xlink:href="#DejaVuSans-58" transform="translate(1019.703125 0)"/>
    <use xlink:href="#DejaVuSans-47" transform="translate(1083.078125 0)"/>
    <use xlink:href="#DejaVuSans-4c" transform="translate(1146.5625 0)"/>
    <use xlink:href="#DejaVuSans-57" transform="translate(1174.34375 0)"/>
    <use xlink:href="#DejaVuSans-3" transform="translate(1213.546875 0)"/>
    <use xlink:href="#DejaVuSans-46" transform="translate(1245.328125 0)"/>
    <use xlink:href="#DejaVuSans-44" transform="translate(1300.3125 0)"/>
    <use xlink:href="#DejaVuSans-56" transform="translate(1361.59375 0)"/>
    <use xlink:href="#DejaVuSans-48" transform="translate(1413.6875 0)"/>
    <use xlink:href="#DejaVuSans-3" transform="translate(1475.21875 0)"/>
    <use xlink:href="#DejaVuSans-79" transform="translate(1507 0)"/>
    <use xlink:href="#DejaVuSans-3" transform="translate(1538.78125 0)"/>
    <use xlink:href="#DejaVuSans-25" transform="translate(1570.5625 0)"/>
    <use xlink:href="#DejaVuSans-52" transform="translate(1639.171875 0)"/>
    <use xlink:href="#DejaVuSans-57" transform="translate(1700.359375 0)"/>
    <use xlink:href="#DejaVuSans-4b" transform="translate(1739.5625 0)"/>
    <use xlink:href="#DejaVuSans-3" transform="translate(1802.9375 0)"/>
    <use xlink:href="#DejaVuSans-53" transform="translate(1834.71875 0)"/>
    <use xlink:href="#DejaVuSans-44" transform="translate(1898.203125 0)"/>
    <use xlink:href="#DejaVuSans-56" transform="translate(1959.484375 0)"/>
    <use xlink:href="#DejaVuSans-56" transform="translate(2011.578125 0)"/>
    <use xlink:href="#DejaVuSans-3" transform="translate(2063.671875 0)"/>
    <use xlink:href="#DejaVuSans-56" transform="translate(2095.453125 0)"/>
    <use xlink:href="#DejaVuSans-57" transform="translate(2147.546875 0)"/>
    <use xlink:href="#DejaVuSans-55" transform="translate(2186.75 0)"/>
    <use xlink:href="#DejaVuSans-4c" transform="translate(2227.859375 0)"/>
    <use xlink:href="#DejaVuSans-46" transform="translate(2255.640625 0)"/>
    <use xlink:href="#DejaVuSans-57" transform="translate(2310.625 0)"/>
    <use xlink:href="#DejaVuSans-3" transform="translate(2349.828125 0)"/>
    <use xlink:href="#DejaVuSans-4a" transform="translate(2381.609375 0)"/>
    <use xlink:href="#DejaVuSans-48" transform="translate(2445.09375 0)"/>
    <use xlink:href="#DejaVuSans-52" transform="translate(2506.625 0)"/>
    <use xlink:href="#DejaVuSans-50" transform="translate(2567.8125 0)"/>
    <use xlink:href="#DejaVuSans-48" transform="translate(2665.21875 0)"/>
    <use xlink:href="#DejaVuSans-57" transform="translate(2726.75 0)"/>
    <use xlink:href="#DejaVuSans-55" transform="translate(2765.953125 0)"/>
    <use xlink:href="#DejaVuSans-5c" transform="translate(2807.0625 0)"/>
    <use xlink:href="#DejaVuSans-3" transform="translate(2866.25 0)"/>
    <use xlink:href="#DejaVuSans-46" transform="translate(2898.03125 0)"/>
    <use xlink:href="#DejaVuSans-4b" transform="translate(2953.015625 0)"/>
    <use xlink:href="#DejaVuSans-48" transform="translate(3016.390625 0)"/>
    <use xlink:href="#DejaVuSans-46" transform="translate(3077.921875 0)"/>
    <use xlink:href="#DejaVuSans-4e" transform="translate(3132.90625 0)"/>
    <use xlink:href="#DejaVuSans-56" transform="translate(3190.8125 0)"/>
   </g>
  </g>
 </g>
 <defs>
  <clipPath id="p23477f7217">
   <rect x="46.418139" y="51.724236" width="259.875524" height="259.875524"/>
  </clipPath>
  <clipPath id="p2b41b2a254">
   <rect x="370.657899" y="51.724236" width="259.875524" height="259.875524"/>
  </clipPath>
 </defs>
</svg>
